<?xml version="1.0" standalone="no"?>
<!DOCTYPE svg PUBLIC "-//W3C//DTD SVG 1.1//EN" "http://www.w3.org/Graphics/SVG/1.1/DTD/svg11.dtd" >
<svg xmlns="http://www.w3.org/2000/svg">
<metadata>Generated by IcoMoon</metadata>
<defs>
<font id="hook" horiz-adv-x="512">
<font-face units-per-em="512" ascent="440.32" descent="-71.68" />
<missing-glyph horiz-adv-x="512" />
<glyph unicode="&#x20;" d="" horiz-adv-x="128" />
<glyph unicode="&#xe025;" d="M447.97 122.106c-0.006 0.353-0.015 0.701-0.021 1.053-0.016 0.714-0.035 1.427-0.059 2.14-5.015 157.824-191.89 313.558-191.89 313.558s-186.877-155.734-191.89-313.561c-0.022-0.715-0.044-1.426-0.060-2.141-0.007-0.352-0.015-0.701-0.021-1.053-0.018-1.080-0.028-2.162-0.028-3.248 0-1.184 0.014-2.361 0.035-3.539 0.002-0.098 0.003-0.195 0.007-0.293 2.039-104.266 87.198-188.165 191.957-188.165 104.758 0 189.916 83.899 191.959 188.168 0.002 0.098 0.004 0.196 0.005 0.293 0.021 1.178 0.036 2.357 0.036 3.539 0 1.086-0.012 2.168-0.030 3.249zM383.975 116.487l-0.004-0.203c-0.659-33.643-14.266-65.167-38.313-88.774-24.071-23.636-55.915-36.653-89.658-36.653-6.231 0-12.397 0.447-18.462 1.319 69.528 41.423 116.108 117.352 116.108 204.161 0 9.728-0.59 19.317-1.726 28.74 20.136-36.97 31.032-71.4 32.001-101.813l0.002-0.072c0.016-0.474 0.026-0.946 0.039-1.422l0.014-0.724c0.014-0.728 0.024-1.459 0.024-2.189 0-0.792-0.010-1.581-0.025-2.37z" />
<glyph unicode="&#xe031;" d="M0 406.857v-480h512v480h-512zM448 54.857h-384v288h384v-288zM416 150.857l-32 64-64-64-96 160-128-192v-32h320z" />
<glyph unicode="&#xe032;" d="M384 406.857h-384v-384h384v384zM352 118.857h-320v256h320v-256zM256 278.857l-22.857-45.714-73.143 109.714-96-192h256zM416 315.48v-324.623h-355.528l-2.508-23.861 381.897-40.139 40.139 381.896z" />
<glyph unicode="&#xe038;" d="M406.079 291.651c-43.525 61.105-39.44 17.957-81.604 139.842l-44.589 7.364-49.609-366.475c-111.816 63.979-182.336-1.734-164.492-84.443 9.46-43.856 80.716-85.137 150.9-44.39 33.171 19.945 43.836 52.11 48.070 74.919l35.438 271.926c126.445-111.487 86.071-178.946 59.925-256.622 53.749 22.167 137.94 119.944 45.961 257.879z" />
<glyph unicode="&#xe07f;" d="M451.716 339.142c13.746-13.746 25.277-39.336 27.776-60.285h-159.492v159.492c20.949-2.499 46.538-14.030 60.284-27.776l71.432-71.431zM288 246.857v192h-216c-22 0-40-18-40-40v-432c0-22 18-40 40-40h368c22 0 40 18 40 40v280h-192zM352 54.857h-64v-64h-64v64h-64v64h64v64h64v-64h64v-64z" />
<glyph unicode="&#xe0d9;" d="M256 438.857c-141.385 0-256-114.615-256-256s114.615-256 256-256 256 114.615 256 256-114.615 256-256 256zM160 182.857c0 53.020 42.98 96 96 96s96-42.98 96-96-42.98-96-96-96-96 42.98-96 96zM462.99 97.119v0l-88.71 36.745c6.259 15.092 9.72 31.638 9.72 48.993s-3.461 33.901-9.72 48.993l88.71 36.745c10.954-26.411 17.010-55.365 17.010-85.738s-6.057-59.327-17.010-85.738v0zM341.739 389.847v0 0l-36.745-88.71c-15.092 6.259-31.638 9.72-48.994 9.72s-33.901-3.461-48.993-9.72l-36.745 88.711c26.411 10.952 55.366 17.009 85.738 17.009s59.327-6.057 85.739-17.010zM49.010 268.595l88.711-36.745c-6.259-15.092-9.721-31.638-9.721-48.993s3.461-33.901 9.72-48.993l-88.71-36.745c-10.953 26.411-17.010 55.365-17.010 85.738s6.057 59.327 17.010 85.738zM170.262-24.133l36.745 88.71c15.092-6.259 31.638-9.72 48.993-9.72s33.901 3.461 48.993 9.72l36.745-88.71c-26.411-10.952-55.365-17.010-85.738-17.010s-59.327 6.057-85.738 17.010z" />
<glyph unicode="&#xe0eb;" d="M480 374.857h-448c-17.6 0-32-14.4-32-32v-320c0-17.6 14.4-32 32-32h448c17.6 0 32 14.4 32 32v320c0 17.6-14.4 32-32 32zM448 310.857v-23l-192-113.143-192 113.143v23h384zM64 54.857v177.286l192-113.143 192 113.143v-177.286h-384z" />
<glyph unicode="&#xe0fe;" d="M400 246.857l96 64-96 64h-112v40c0 13.2-10.8 24-24 24h-16c-13.2 0-24-10.8-24-24v-40h-160v-128h160v-32h-144l-64-48 64-48h144v-192h64v192h128v96h-128v32h112z" />
<glyph unicode="&#xe418;" d="M384 214.857l-128 128-128-128zM128 118.857l128-128 128 128z" />
<glyph unicode="&#xe435;" d="M384 326.857l-176-160-64 80-48-48 112-144 208 240zM448 374.857v-384h-384v384h384zM464 438.857h-416c-26.4 0-48-21.6-48-48v-416c0-26.4 21.6-48 48-48h416c26.4 0 48 21.6 48 48v416c0 26.4-21.6 48-48 48v0z" />
<glyph unicode="&#xe438;" d="M256 438.857c-141.385 0-256-114.615-256-256s114.615-256 256-256 256 114.615 256 256-114.615 256-256 256zM256-9.143c-106.039 0-192 85.961-192 192s85.961 192 192 192c106.039 0 192-85.961 192-192s-85.961-192-192-192zM160 182.857c0 53.020 42.981 96 96 96s96-42.981 96-96c0-53.019-42.981-96-96-96s-96 42.981-96 96z" />
<glyph unicode="&#xe439;" d="M256 438.857c-141.385 0-256-114.615-256-256s114.615-256 256-256 256 114.615 256 256-114.615 256-256 256zM256-9.143c-106.039 0-192 85.961-192 192s85.961 192 192 192c106.039 0 192-85.961 192-192s-85.961-192-192-192z" />
<glyph unicode="&#xe4ba;" d="M256 438.857c-141.385 0-256-114.615-256-256s114.615-256 256-256 256 114.615 256 256-114.615 256-256 256zM408.028 30.829c-19.759-19.758-42.756-35.266-68.354-46.093-6.503-2.75-13.107-5.164-19.8-7.246v38.367c0 20.167-6.917 35-20.75 44.5 8.667 0.833 16.625 2 23.875 3.5s14.917 3.667 23 6.5 15.333 6.208 21.75 10.125 12.583 9 18.5 15.25 10.875 13.333 14.875 21.25 7.167 17.417 9.5 28.5 3.5 23.292 3.5 36.625c0 25.833-8.417 47.833-25.25 66 7.667 20 6.833 41.75-2.5 65.25l-6.25 0.75c-4.333 0.5-12.125-1.333-23.375-5.5s-23.875-11-37.875-20.5c-19.833 5.5-40.417 8.25-61.75 8.25-21.5 0-42-2.75-61.5-8.25-8.833 6-17.208 10.958-25.125 14.875s-14.25 6.583-19 8-9.167 2.292-13.25 2.625-6.708 0.417-7.875 0.25-2-0.333-2.5-0.5c-9.333-23.667-10.167-45.417-2.5-65.25-16.833-18.167-25.25-40.167-25.25-66 0-13.333 1.167-25.542 3.5-36.625s5.5-20.583 9.5-28.5 8.958-15 14.875-21.25 12.083-11.333 18.5-15.25 13.667-7.292 21.75-10.125 15.75-5 23-6.5 15.208-2.667 23.875-3.5c-13.667-9.333-20.5-24.167-20.5-44.5v-39.115c-7.549 2.247-14.99 4.902-22.3 7.994-25.597 10.827-48.594 26.335-68.353 46.093-19.758 19.759-35.267 42.756-46.093 68.354-11.199 26.479-16.878 54.631-16.878 83.674s5.679 57.195 16.879 83.675c10.827 25.597 26.335 48.594 46.093 68.353s42.756 35.267 68.353 46.093c26.48 11.2 54.632 16.879 83.675 16.879s57.195-5.679 83.675-16.879c25.598-10.827 48.595-26.335 68.354-46.093 19.758-19.758 35.266-42.756 46.093-68.353 11.199-26.48 16.878-54.632 16.878-83.675s-5.679-57.195-16.879-83.675c-10.827-25.597-26.335-48.595-46.093-68.353z" />
<glyph unicode="&#xe4e8;" d="M224 150.857l-32 32-96-96 96-96 32 32-64 64zM288 22.857l32-32 96 96-96 96-32-32 64-64zM451.716 339.142l-71.432 71.431c-15.556 15.556-46.284 28.284-68.284 28.284h-240c-22 0-40-18-40-40v-432c0-22 18-40 40-40h368c22 0 40 18 40 40v304c0 22-12.728 52.729-28.284 68.285zM429.089 316.514c1.565-1.565 3.125-3.487 4.64-5.657h-81.729v81.728c2.17-1.515 4.092-3.075 5.657-4.64l71.432-71.431zM448-33.143c0-4.336-3.664-8-8-8h-368c-4.336 0-8 3.664-8 8v432c0 4.336 3.664 8 8 8h240c2.416 0 5.127-0.305 8-0.852v-127.148h127.148c0.547-2.873 0.852-5.583 0.852-8v-304z" />
<glyph unicode="&#xe600;" d="M64 56v272h80l80-100 80 100h80v-272h-80v156l-80-100-80 100v-156zM564 56l-120 132h80v140h80v-140h80z" horiz-adv-x="736" />
<glyph unicode="&#xf002;" d="M329.143 201.143q0 52.857-37.572 90.428t-90.428 37.572-90.428-37.572-37.572-90.428 37.572-90.428 90.428-37.572 90.428 37.572 37.572 90.428zM475.428-36.571q0-14.857-10.857-25.714t-25.714-10.857q-15.428 0-25.714 10.857l-98 97.715q-51.143-35.428-114-35.428-40.857 0-78.143 15.857t-64.285 42.857-42.857 64.286-15.857 78.143 15.857 78.143 42.857 64.285 64.285 42.857 78.143 15.857 78.143-15.857 64.286-42.857 42.857-64.285 15.857-78.143q0-62.857-35.428-114l98-98q10.572-10.572 10.572-25.714z" horiz-adv-x="476" />
<glyph unicode="&#xf005;" d="M475.428 254q0-6.286-7.428-13.714l-103.714-101.143 24.572-142.857q0.286-2 0.286-5.714 0-6-3-10.143t-8.714-4.143q-5.428 0-11.428 3.428l-128.286 67.428-128.286-67.428q-6.285-3.428-11.428-3.428-6 0-9 4.143t-3 10.143q0 1.715 0.572 5.715l24.572 142.857-104 101.143q-7.143 7.714-7.143 13.714 0 10.572 16 13.143l143.428 20.857 64.286 130q5.428 11.714 14 11.714t14-11.714l64.286-130 143.429-20.857q16-2.572 16-13.143z" horiz-adv-x="476" />
<glyph unicode="&#xf006;" d="M324.857 152l87.428 84.857-120.572 17.715-54 109.143-54-109.143-120.572-17.714 87.428-84.857-20.857-120.285 108 56.857 107.714-56.857zM475.428 254q0-6.286-7.428-13.714l-103.714-101.143 24.572-142.857q0.286-2 0.286-5.714 0-14.286-11.714-14.286-5.428 0-11.428 3.428l-128.286 67.428-128.286-67.428q-6.285-3.428-11.428-3.428-6 0-9 4.143t-3 10.143q0 1.715 0.572 5.715l24.572 142.857-104 101.143q-7.143 7.714-7.143 13.714 0 10.572 16 13.143l143.428 20.857 64.286 130q5.428 11.714 14 11.714t14-11.714l64.286-130 143.429-20.857q16-2.572 16-13.143z" horiz-adv-x="476" />
<glyph unicode="&#xf007;" d="M402.286 37.429q0-34.285-20.857-54.143t-55.428-19.857h-249.714q-34.572 0-55.428 19.857t-20.857 54.143q0 15.143 1 29.572t4 31.143 7.572 31 12.285 27.857 17.715 23.143 24.428 15.286 31.857 5.714q2.572 0 12-6.143t21.285-13.714 30.857-13.715 38.143-6.143 38.143 6.143 30.857 13.715 21.286 13.714 12 6.143q17.428 0 31.857-5.714t24.428-15.286 17.714-23.143 12.286-27.857 7.572-31 4-31.143 1-29.572zM310.857 292.572q0-45.428-32.143-77.571t-77.572-32.143-77.572 32.143-32.143 77.571 32.143 77.572 77.572 32.143 77.572-32.143 32.143-77.572z" horiz-adv-x="403" />
<glyph unicode="&#xf00c;" d="M477.428 277.143q0-11.428-8-19.428l-245.714-245.714q-8-8-19.428-8t-19.428 8l-142.286 142.285q-8 8-8 19.428t8 19.429l38.857 38.857q8 8 19.428 8t19.428-8l84-84.286 187.429 187.714q8 8 19.428 8t19.428-8l38.857-38.857q8-8 8-19.428z" />
<glyph unicode="&#xf00d;" d="M370.857 61.143q0-11.428-8-19.428l-38.857-38.857q-8-8-19.428-8t-19.428 8l-84 84-84-84q-8-8-19.428-8t-19.428 8l-38.857 38.857q-8 8-8 19.428t8 19.428l84 84-84 84q-8 8-8 19.429t8 19.428l38.857 38.857q8 8 19.428 8t19.428-8l84-84 84 84q8 8 19.428 8t19.428-8l38.857-38.857q8-8 8-19.428t-8-19.429l-84-84 84-84q8-8 8-19.428z" horiz-adv-x="403" />
<glyph unicode="&#xf012;" d="M292.572 182.857q0 30.286-21.428 51.715t-51.714 21.428-51.714-21.428-21.428-51.715 21.428-51.714 51.714-21.428 51.714 21.428 21.428 51.714zM438.857 214v-63.428q0-3.428-2.286-6.572t-5.714-3.715l-52.857-8q-5.428-15.428-11.143-26 10-14.285 30.572-39.428 2.857-3.428 2.857-7.143t-2.572-6.572q-7.714-10.572-28.286-30.857t-26.857-20.285q-3.428 0-7.428 2.572l-39.428 30.857q-12.572-6.572-26-10.857-4.572-38.857-8.286-53.143-2-8-10.286-8h-63.428q-4 0-7 2.428t-3.286 6.143l-8 52.572q-14 4.572-25.714 10.572l-40.285-30.572q-2.857-2.572-7.143-2.572-4 0-7.143 3.143-36 32.572-47.143 48-2 2.857-2 6.572 0 3.428 2.285 6.572 4.285 6 14.572 19t15.428 20.143q-7.715 14.286-11.715 28.286l-52.285 7.714q-3.715 0.572-6 3.572t-2.285 6.715v63.428q0 3.429 2.285 6.572t5.428 3.714l53.143 8q4 13.143 11.143 26.285-11.428 16.286-30.572 39.428-2.857 3.429-2.857 6.857 0 2.857 2.572 6.572 7.428 10.286 28.143 30.714t27 20.428q3.715 0 7.428-2.857l39.428-30.572q12.572 6.572 26 10.857 4.572 38.857 8.286 53.143 2 8 10.286 8h63.428q4 0 7-2.428t3.286-6.143l8-52.572q14-4.571 25.714-10.571l40.572 30.571q2.572 2.572 6.857 2.572 3.714 0 7.143-2.857 36.857-34 47.143-48.572 2-2.286 2-6.286 0-3.429-2.286-6.571-4.286-6-14.572-19t-15.428-20.143q7.428-14.286 11.714-28l52.286-8q3.714-0.571 6-3.571t2.286-6.714z" horiz-adv-x="439" />
<glyph unicode="&#xf014;" d="M402.286 155.429v-137.143q0-7.428-5.428-12.857t-12.857-5.428h-109.714v109.715h-73.143v-109.715h-109.715q-7.428 0-12.857 5.428t-5.428 12.857v137.143q0 0.286 0.143 0.857t0.143 0.857l164.286 135.429 164.285-135.429q0.286-0.572 0.286-1.714zM466 175.143l-17.714-21.143q-2.286-2.572-6-3.143h-0.857q-3.714 0-6 2l-197.714 164.857-197.714-164.857q-3.428-2.286-6.857-2-3.715 0.572-6 3.143l-17.715 21.143q-2.285 2.857-2 6.715t3.143 6.143l205.428 171.143q9.143 7.428 21.714 7.428t21.714-7.428l69.714-58.286v55.715q0 4 2.572 6.572t6.572 2.571h54.857q4 0 6.572-2.571t2.572-6.572v-116.572l62.572-52q2.857-2.286 3.143-6.143t-2-6.715z" horiz-adv-x="476" />
<glyph unicode="&#xf015;" d="M0 301.714v18.286q0 4 2.571 6.571t6.572 2.572h88.285l20 47.715q4.285 10.571 15.428 18t22.571 7.428h91.428q11.428 0 22.572-7.428t15.428-18l20-47.715h88.286q4 0 6.572-2.572t2.572-6.571v-18.286q0-4-2.572-6.572t-6.572-2.571h-27.428v-270.857q0-23.714-13.428-41t-32.286-17.285h-237.714q-18.857 0-32.285 16.714t-13.428 40.428v272h-27.428q-4 0-6.572 2.571t-2.571 6.571zM73.143 21.714q0-6.286 2-11.572t4.143-7.715 3-2.428h237.714q0.857 0 3 2.428t4.143 7.715 2 11.572v270.857h-256v-270.857zM109.715 64v164.571q0 4 2.572 6.571t6.572 2.571h18.285q4 0 6.571-2.571t2.571-6.572v-164.572q0-4-2.571-6.572t-6.572-2.572h-18.285q-4 0-6.572 2.572t-2.572 6.572zM137.143 329.143h128l-13.714 33.428q-2 2.572-4.857 3.143h-90.571q-2.857-0.572-4.857-3.143zM182.857 64v164.571q0 4 2.571 6.571t6.572 2.571h18.286q4 0 6.572-2.571t2.571-6.572v-164.572q0-4-2.571-6.572t-6.572-2.572h-18.286q-4 0-6.572 2.572t-2.571 6.572zM256 64v164.571q0 4 2.572 6.571t6.572 2.571h18.286q4 0 6.572-2.571t2.572-6.572v-164.572q0-4-2.572-6.572t-6.572-2.572h-18.286q-4 0-6.572 2.572t-2.572 6.572z" horiz-adv-x="403" />
<glyph unicode="&#xf016;" d="M256 283.429v-128q0-4-2.571-6.572t-6.571-2.572h-91.428q-4 0-6.572 2.572t-2.571 6.572v18.286q0 4 2.571 6.572t6.572 2.571h64v100.572q0 4 2.571 6.572t6.571 2.571h18.286q4 0 6.572-2.571t2.572-6.572zM374.857 182.857q0 42.286-20.857 78t-56.572 56.571-78 20.857-78-20.857-56.572-56.571-20.857-78 20.857-78 56.572-56.572 78-20.857 78 20.857 56.572 56.572 20.857 78zM438.857 182.857q0-59.714-29.428-110.143t-79.857-79.857-110.143-29.428-110.143 29.428-79.857 79.857-29.428 110.143 29.428 110.143 79.857 79.857 110.143 29.428 110.143-29.428 79.857-79.857 29.428-110.143z" horiz-adv-x="439" />
<glyph unicode="&#xf019;" d="M320 173.714q0-3.428-2.857-6.857l-91.143-91.143q-3.143-2.572-6.571-2.572t-6.572 2.572l-91.428 91.428q-4.285 4.572-2 10 2.285 5.715 8.572 5.715h54.857v100.571q0 4 2.571 6.572t6.571 2.572h54.857q4 0 6.571-2.572t2.571-6.572v-100.571h54.857q4 0 6.572-2.572t2.572-6.572zM219.429 338.286q-42.285 0-78-20.857t-56.572-56.571-20.857-78 20.857-78 56.572-56.572 78-20.857 78 20.857 56.572 56.572 20.857 78-20.857 78-56.572 56.571-78 20.857zM438.857 182.857q0-59.714-29.428-110.143t-79.857-79.857-110.143-29.428-110.143 29.428-79.857 79.857-29.428 110.143 29.428 110.143 79.857 79.857 110.143 29.428 110.143-29.428 79.857-79.857 29.428-110.143z" horiz-adv-x="439" />
<glyph unicode="&#xf01a;" d="M319.428 188.572q-2.286-5.715-8.572-5.715h-54.857v-100.572q0-4-2.571-6.572t-6.572-2.572h-54.857q-4 0-6.571 2.572t-2.571 6.572v100.572h-54.857q-4 0-6.572 2.572t-2.572 6.571q0 3.429 2.857 6.857l91.143 91.143q3.143 2.572 6.571 2.572t6.572-2.572l91.428-91.428q4.286-4.572 2-10zM219.429 338.286q-42.285 0-78-20.857t-56.572-56.571-20.857-78 20.857-78 56.572-56.572 78-20.857 78 20.857 56.572 56.572 20.857 78-20.857 78-56.572 56.571-78 20.857zM438.857 182.857q0-59.714-29.428-110.143t-79.857-79.857-110.143-29.428-110.143 29.428-79.857 79.857-29.428 110.143 29.428 110.143 79.857 79.857 110.143 29.428 110.143-29.428 79.857-79.857 29.428-110.143z" horiz-adv-x="439" />
<glyph unicode="&#xf01c;" d="M338.286 182.857q0-10.572-9.143-15.714l-155.429-91.428q-4.286-2.572-9.143-2.572-4.572 0-9.143 2.285-9.143 5.428-9.143 16v182.857q0 10.572 9.143 16 9.429 5.143 18.285-0.286l155.429-91.429q9.143-5.143 9.143-15.715zM374.857 182.857q0 42.286-20.857 78t-56.572 56.571-78 20.857-78-20.857-56.572-56.571-20.857-78 20.857-78 56.572-56.572 78-20.857 78 20.857 56.572 56.572 20.857 78zM438.857 182.857q0-59.714-29.428-110.143t-79.857-79.857-110.143-29.428-110.143 29.428-79.857 79.857-29.428 110.143 29.428 110.143 79.857 79.857 110.143 29.428 110.143-29.428 79.857-79.857 29.428-110.143z" horiz-adv-x="439" />
<glyph unicode="&#xf01e;" d="M431.714 137.143q0-1.428-0.286-2-18.286-76.572-76.572-124.143t-136.571-47.572q-41.715 0-80.715 15.715t-69.572 44.857l-36.857-36.857q-5.428-5.428-12.857-5.428t-12.857 5.428-5.428 12.857v128q0 7.428 5.428 12.857t12.857 5.428h128q7.428 0 12.857-5.428t5.429-12.857-5.428-12.857l-39.143-39.143q20.285-18.857 46-29.143t53.429-10.285q38.286 0 71.428 18.572t53.143 51.143q3.143 4.857 15.143 33.428 2.286 6.572 8.572 6.572h54.857q3.714 0 6.428-2.714t2.714-6.428zM438.857 365.714v-128q0-7.429-5.428-12.857t-12.857-5.428h-128q-7.428 0-12.857 5.428t-5.428 12.857 5.428 12.857l39.428 39.428q-42.286 39.143-99.714 39.143-38.286 0-71.428-18.572t-53.143-51.143q-3.143-4.857-15.143-33.429-2.285-6.572-8.572-6.572h-56.857q-3.715 0-6.428 2.714t-2.715 6.428v2q18.572 76.572 77.143 124.143t137.143 47.572q41.714 0 81.143-15.857t70-44.714l37.143 36.857q5.428 5.428 12.857 5.428t12.857-5.428 5.428-12.857z" horiz-adv-x="439" />
<glyph unicode="&#xf01f;" d="M109.715 100.572v-18.286q0-3.714-2.715-6.428t-6.428-2.714h-18.285q-3.715 0-6.428 2.714t-2.715 6.428v18.286q0 3.714 2.715 6.428t6.428 2.714h18.285q3.715 0 6.428-2.714t2.715-6.428zM109.715 173.714v-18.286q0-3.714-2.715-6.428t-6.428-2.714h-18.285q-3.715 0-6.428 2.714t-2.715 6.428v18.286q0 3.714 2.715 6.428t6.428 2.714h18.285q3.715 0 6.428-2.714t2.715-6.428zM109.715 246.857v-18.286q0-3.714-2.715-6.428t-6.428-2.714h-18.285q-3.715 0-6.428 2.714t-2.715 6.428v18.286q0 3.714 2.715 6.428t6.428 2.714h18.285q3.715 0 6.428-2.714t2.715-6.428zM438.857 100.572v-18.286q0-3.714-2.714-6.428t-6.428-2.714h-274.286q-3.714 0-6.428 2.714t-2.714 6.428v18.286q0 3.714 2.714 6.428t6.428 2.714h274.286q3.714 0 6.428-2.714t2.714-6.428zM438.857 173.714v-18.286q0-3.714-2.714-6.428t-6.428-2.714h-274.286q-3.714 0-6.428 2.714t-2.714 6.428v18.286q0 3.714 2.714 6.428t6.428 2.714h274.286q3.714 0 6.428-2.714t2.714-6.428zM438.857 246.857v-18.286q0-3.714-2.714-6.428t-6.428-2.714h-274.286q-3.714 0-6.428 2.714t-2.714 6.428v18.286q0 3.714 2.714 6.428t6.428 2.714h274.286q3.714 0 6.428-2.714t2.714-6.428zM475.428 45.714v237.714q0 3.714-2.714 6.428t-6.428 2.714h-420.572q-3.715 0-6.428-2.714t-2.715-6.428v-237.714q0-3.715 2.715-6.428t6.428-2.715h420.572q3.714 0 6.428 2.715t2.714 6.428zM512 356.572v-310.857q0-18.857-13.428-32.285t-32.286-13.428h-420.572q-18.857 0-32.285 13.428t-13.428 32.285v310.857q0 18.857 13.428 32.286t32.285 13.429h420.572q18.857 0 32.286-13.429t13.428-32.286z" />
<glyph unicode="&#xf020;" d="M91.428 219.429h146.286v54.857q0 30.285-21.428 51.714t-51.714 21.428-51.715-21.428-21.428-51.714v-54.857zM329.143 192v-164.572q0-11.428-8-19.428t-19.428-8h-274.286q-11.428 0-19.428 8t-8 19.428v164.572q0 11.429 8 19.429t19.428 8h9.143v54.857q0 52.572 37.715 90.286t90.285 37.714 90.285-37.714 37.714-90.286v-54.857h9.143q11.428 0 19.428-8t8-19.428z" horiz-adv-x="329" />
<glyph unicode="&#xf029;" d="M128 310.857q0 15.143-10.715 25.857t-25.857 10.714-25.857-10.714-10.715-25.857 10.715-25.857 25.857-10.714 25.857 10.714 10.715 25.857zM432.857 146.286q0-15.143-10.572-25.714l-140.286-140.572q-11.143-10.572-26-10.572-15.143 0-25.714 10.572l-204.286 204.572q-10.857 10.571-18.428 28.857t-7.572 33.428v118.857q0 14.857 10.857 25.714t25.715 10.857h118.857q15.143 0 33.428-7.572t29.143-18.428l204.285-204q10.572-11.143 10.572-26zM542.572 146.286q0-15.143-10.572-25.714l-140.286-140.572q-11.143-10.572-26-10.572-10.286 0-16.857 4t-15.143 12.857l134.286 134.286q10.572 10.572 10.572 25.714 0 14.857-10.572 26l-204.286 204q-10.857 10.857-29.143 18.428t-33.429 7.572h64q15.143 0 33.428-7.572t29.143-18.428l204.286-204q10.572-11.143 10.572-26z" horiz-adv-x="549" />
<glyph unicode="&#xf02e;" d="M207.143 279.143l-48.571-128.571q20.857-0.285 43.857-0.572t34-0.428 15-0.143l8.285 0.572q-9.143 27.143-26.286 68.857-15.143 37.714-26.286 60.286zM6-36.571h-6l0.572 22.572q6.285 2 22.857 5.143 25.428 4.572 31.428 8.857 5.715 4.572 13.715 19.428l67.715 176 80 206.857h36.572l3.143-6 58.572-137.143q29.428-69.143 35.428-84.857 11.143-29.143 27.428-67.143 7.428-16.572 18.572-46.857 6.857-19.143 18.572-42.572 6.286-14 10-16.285 6.286-5.428 19.714-6.572 13.428-1.715 29.428-7.715 1.714-11.143 1.714-16.285 0-4-0.286-7.428-22.857 0-54.857 2.285-26.572 2.286-54 2.286-22.572 0-38.572-0.572l-57.143-3.143-16.572-0.572q0 12.857 1.143 22.286l37.429 8q16 3.714 19.428 6.572 3.428 3.428 3.428 7.714t-1.714 9.143l-13.428 32.572-26.286 65.143-128.571 0.572q-8.286-18.572-29.715-78.285-6.572-18.286-6.572-24 0-8.857 4.857-12.286 7.428-6 29.428-9.143 0.857 0 3.857-0.572t8.571-1.428 11.572-1.714q0.286-8 0.286-16.572 0-4.857-0.571-7.715-18.857 0-99.715 5.715l-13.715-2.286q-23.143-4-47.715-4z" horiz-adv-x="476" />
<glyph unicode="&#xf02f;" d="M158.571 4.286q21.715-9.143 40-9.143 37.429 0 61.715 11.715t34.857 32.285q10.857 20 10.857 51.715 0 32.572-11.714 51.428-16.572 26.857-40.286 36-22.857 9.143-70.572 9.143-21.143 0-28.857-2.857v-41.143l-0.286-49.428 0.857-77.143q0-4.285 3.429-12.572zM154.571 217.429q12.286-2 31.143-2 50 0 75.428 18.571t25.428 64q0 32-24.286 53.429-24 21.428-72.857 21.428-14.857 0-37.143-3.714 0-12.572 0.571-22 2-34.857 1.714-79.715l-0.286-28q0-12.286 0.286-22zM0-36.571l0.572 26.857q12.857 2.572 19.428 3.428 22 3.428 35.143 8.857 4.857 7.715 6 14.572 2.572 18.857 2.572 55.428l-0.572 142q-1.428 73.143-2.572 115.429-0.285 24.857-3.143 31.143-0.285 1.143-3.428 3.429-5.143 3.428-19.715 4.285-8.572 0.572-32.572 3.715l-1.143 23.714 74.285 1.714 108.572 3.714 12.857 0.286q1.429 0 4 0.143t4 0.143q0.286 0 6.143-0.143t11.572-0.143h21.143q25.143 0 54.571-7.714 12.286-3.714 27.428-11.143 16.286-8.286 29.143-21.714 12.572-13.428 18.572-29.714t6-34.857q0-20-9.143-36.572t-27.143-30q-7.428-5.714-42.857-22 50.572-11.714 76.286-41.715 26.286-30.285 26.286-67.428 0-21.714-8.286-46-6-17.714-20.286-33.428-18.857-20.572-40-30.857-20.857-10.285-58-17.143-23.428-4.285-56.572-3.143l-56.286 1.143q-24 0.572-85.143-3.143-9.428-0.857-77.715-3.143z" horiz-adv-x="403" />
<glyph unicode="&#xf030;" d="M0-36l4.857 24.285q1.143 0.286 22 5.715 21.715 5.428 33.143 11.143 8.285 10.572 11.715 28.857l7.715 39.715 16 76.572 3.428 18.285q2.285 12.572 4.857 24.143t4.572 19.143 3.572 13.286 2.572 8.714 1 3.286l8.285 44.857 4.572 18 6.286 38.572 2.286 14.285v10.857q-11.715 6.286-41.143 8-8 0.572-10.857 1.143l5.428 29.429 90.572-4q11.143-0.572 20.857-0.572 18.857 0 61.143 2.572 9.428 0.571 19.428 1.286t10.286 0.714q-0.572-5.429-1.714-10.857-2-8.285-3.714-14.572-15.714-5.428-31.143-8.857-18.285-4.572-28.857-8.857-3.429-8.857-6.857-25.143-2.571-12.572-3.714-23.428-12.571-56.857-18.857-87.429l-17.428-88.857-10.857-45.143-12.286-67.143-3.429-12.857q-0.571-2 0.286-7.714 18.286-4.286 34-6 10.286-1.428 18.857-2.857-0.286-8.285-2-16.572-2-8.857-2.571-11.714-5.143 0-6.572-0.286-6.857-0.572-12-0.572-2.571 0-8 0.857-5.428 1.143-41.428 4.857l-56.572 0.572q-11.715 0.286-49.715-3.143-21.143-2-28-2.572z" horiz-adv-x="293" />
<glyph unicode="&#xf031;" d="M23.143 402l15.428-7.714q5.715-1.428 60.285-1.428h37.143l5.428 0.857 32.857 0.286 61.429-0.286h83.714l9.714-0.572q4-0.285 8 2t6 4.572l2 2.286 12 0.286q4.286 0 8-0.286v-29.857t0.286-37.572l0.286-28.572-0.286-16.572q0-9.143-1.143-14.572-11.143-4.285-19.428-5.143-7.143 12.286-15.428 36.571-2.286 6.857-4.428 17.857t-3.286 18.714-1.714 8.286q-3.714 4.286-7.714 5.428-2 0.572-12.143 0.572t-29.572-0.286-31.714-0.285q-9.714 0-19.143-1.429-2.857-27.714-2.286-38.857l0.286-43.429v-94.857l0.857-102.572-0.286-42q-0.286-13.143 3.143-24.285 14-7.143 25.429-9.143 0.571 0 5.143-1.428t12.571-3.714 12.286-3.428q8.572-2.286 14.286-5.143 1.428-12.857 1.428-14.285 0-2.857-0.857-8.286-4-0.285-9.714-0.285-31.428 0-53.428 2.857-20.572 2.286-68 2.286-25.143 0-66.572-4-13.715-1.143-20-1.143-0.572 6.286-0.572 7.428l-0.285 7.428v2.572q6 9.428 22.572 14 39.715 10.857 45.429 14.286 2.571 6 3.429 16 2.286 54.857 1.714 123.714l-1.429 122.286q-0.286 17.715-0.143 33.857t0.143 29.286-0.571 16.285-1.714 4.286q-1.714 1.429-4 1.714-10.857 1.715-42.285 1.715-12.285 0-28.572-3.857t-20.857-7q-3.715-2.571-6.285-9.428t-6.285-21.428-6.857-24q-1.715-5.428-5.572-9.143t-5.857-3.714q-12.572 7.714-16 12.572v109.428zM498.286 36.572q9.428 0 12-5.286t-3.143-12.714l-36-46.286q-5.714-7.428-14-7.428t-14 7.428l-36 46.286q-5.714 7.428-3.143 12.714t12 5.286h22.857v292.571h-22.857q-9.428 0-12 5.286t3.143 12.714l36 46.286q5.714 7.429 14 7.429t14-7.429l36-46.286q5.714-7.428 3.143-12.714t-12-5.286h-22.857v-292.571h22.857z" />
<glyph unicode="&#xf033;" d="M512 54.857v-36.572q0-7.428-5.428-12.857t-12.857-5.428h-475.428q-7.428 0-12.857 5.428t-5.428 12.857v36.572q0 7.428 5.428 12.857t12.857 5.428h475.428q7.428 0 12.857-5.428t5.428-12.857zM402.286 164.572v-36.572q0-7.428-5.428-12.857t-12.857-5.428h-365.714q-7.428 0-12.857 5.428t-5.428 12.857v36.572q0 7.428 5.428 12.857t12.857 5.428h365.714q7.428 0 12.857-5.428t5.428-12.857zM475.428 274.286v-36.571q0-7.428-5.428-12.857t-12.857-5.429h-438.857q-7.428 0-12.857 5.428t-5.428 12.857v36.572q0 7.428 5.428 12.857t12.857 5.428h438.857q7.428 0 12.857-5.428t5.428-12.857zM365.714 384v-36.572q0-7.428-5.428-12.857t-12.857-5.429h-329.143q-7.428 0-12.857 5.429t-5.428 12.857v36.572q0 7.428 5.428 12.857t12.857 5.428h329.143q7.428 0 12.857-5.428t5.428-12.857z" />
<glyph unicode="&#xf034;" d="M512 54.857v-36.572q0-7.428-5.428-12.857t-12.857-5.428h-475.428q-7.428 0-12.857 5.428t-5.428 12.857v36.572q0 7.428 5.428 12.857t12.857 5.428h475.428q7.428 0 12.857-5.428t5.428-12.857zM402.286 164.572v-36.572q0-7.428-5.428-12.857t-12.857-5.428h-256q-7.428 0-12.857 5.428t-5.428 12.857v36.572q0 7.428 5.428 12.857t12.857 5.428h256q7.428 0 12.857-5.428t5.428-12.857zM475.428 274.286v-36.571q0-7.428-5.428-12.857t-12.857-5.429h-402.286q-7.428 0-12.857 5.428t-5.428 12.857v36.572q0 7.428 5.428 12.857t12.857 5.428h402.286q7.428 0 12.857-5.428t5.428-12.857zM365.714 384v-36.572q0-7.428-5.428-12.857t-12.857-5.429h-182.857q-7.429 0-12.857 5.429t-5.428 12.857v36.572q0 7.428 5.428 12.857t12.857 5.428h182.857q7.428 0 12.857-5.428t5.428-12.857z" />
<glyph unicode="&#xf035;" d="M512 54.857v-36.572q0-7.428-5.428-12.857t-12.857-5.428h-475.428q-7.428 0-12.857 5.428t-5.428 12.857v36.572q0 7.428 5.428 12.857t12.857 5.428h475.428q7.428 0 12.857-5.428t5.428-12.857zM512 164.572v-36.572q0-7.428-5.428-12.857t-12.857-5.428h-365.714q-7.428 0-12.857 5.428t-5.428 12.857v36.572q0 7.428 5.428 12.857t12.857 5.428h365.714q7.428 0 12.857-5.428t5.428-12.857zM512 274.286v-36.571q0-7.428-5.428-12.857t-12.857-5.429h-438.857q-7.428 0-12.857 5.428t-5.428 12.857v36.572q0 7.428 5.428 12.857t12.857 5.428h438.857q7.428 0 12.857-5.428t5.428-12.857zM512 384v-36.572q0-7.428-5.428-12.857t-12.857-5.429h-329.143q-7.428 0-12.857 5.429t-5.429 12.857v36.572q0 7.428 5.428 12.857t12.857 5.428h329.143q7.428 0 12.857-5.428t5.428-12.857z" />
<glyph unicode="&#xf036;" d="M512 54.857v-36.572q0-7.428-5.428-12.857t-12.857-5.428h-475.428q-7.428 0-12.857 5.428t-5.428 12.857v36.572q0 7.428 5.428 12.857t12.857 5.428h475.428q7.428 0 12.857-5.428t5.428-12.857zM512 164.572v-36.572q0-7.428-5.428-12.857t-12.857-5.428h-475.428q-7.428 0-12.857 5.428t-5.428 12.857v36.572q0 7.428 5.428 12.857t12.857 5.428h475.428q7.428 0 12.857-5.428t5.428-12.857zM512 274.286v-36.571q0-7.428-5.428-12.857t-12.857-5.429h-475.428q-7.428 0-12.857 5.428t-5.428 12.857v36.572q0 7.428 5.428 12.857t12.857 5.428h475.428q7.428 0 12.857-5.428t5.428-12.857zM512 384v-36.572q0-7.428-5.428-12.857t-12.857-5.429h-475.428q-7.428 0-12.857 5.429t-5.428 12.857v36.572q0 7.428 5.428 12.857t12.857 5.428h475.428q7.428 0 12.857-5.428t5.428-12.857z" />
<glyph unicode="&#xf037;" d="M73.143 64v-54.857q0-3.714-2.715-6.428t-6.428-2.714h-54.857q-3.715 0-6.428 2.714t-2.715 6.428v54.857q0 3.715 2.715 6.428t6.428 2.715h54.857q3.715 0 6.428-2.715t2.715-6.428zM73.143 173.714v-54.857q0-3.714-2.715-6.428t-6.428-2.714h-54.857q-3.715 0-6.428 2.714t-2.715 6.428v54.857q0 3.715 2.715 6.428t6.428 2.715h54.857q3.715 0 6.428-2.715t2.715-6.428zM73.143 283.429v-54.857q0-3.714-2.715-6.428t-6.428-2.714h-54.857q-3.715 0-6.428 2.714t-2.715 6.428v54.857q0 3.714 2.715 6.429t6.428 2.714h54.857q3.715 0 6.428-2.714t2.715-6.428zM512 64v-54.857q0-3.714-2.714-6.428t-6.428-2.714h-384q-3.715 0-6.428 2.714t-2.715 6.428v54.857q0 3.715 2.715 6.428t6.428 2.715h384q3.714 0 6.428-2.715t2.714-6.428zM73.143 393.143v-54.857q0-3.715-2.715-6.428t-6.428-2.715h-54.857q-3.715 0-6.428 2.715t-2.715 6.428v54.857q0 3.715 2.715 6.428t6.428 2.715h54.857q3.715 0 6.428-2.715t2.715-6.428zM512 173.714v-54.857q0-3.714-2.714-6.428t-6.428-2.714h-384q-3.715 0-6.428 2.714t-2.715 6.428v54.857q0 3.715 2.715 6.428t6.428 2.715h384q3.714 0 6.428-2.715t2.714-6.428zM512 283.429v-54.857q0-3.714-2.714-6.428t-6.428-2.714h-384q-3.715 0-6.428 2.714t-2.715 6.428v54.857q0 3.714 2.715 6.429t6.428 2.714h384q3.714 0 6.428-2.714t2.714-6.428zM512 393.143v-54.857q0-3.715-2.714-6.428t-6.428-2.715h-384q-3.715 0-6.428 2.715t-2.715 6.428v54.857q0 3.715 2.715 6.428t6.428 2.715h384q3.714 0 6.428-2.715t2.714-6.428z" />
<glyph unicode="&#xf038;" d="M109.715 283.429v-164.572q0-3.714-2.715-6.428t-6.428-2.714q-4 0-6.572 2.572l-82.285 82.285q-2.572 2.571-2.572 6.572t2.572 6.572l82.285 82.285q2.572 2.572 6.572 2.572 3.715 0 6.428-2.714t2.715-6.429zM512 64v-54.857q0-3.714-2.714-6.428t-6.428-2.714h-493.714q-3.715 0-6.428 2.714t-2.715 6.428v54.857q0 3.715 2.715 6.428t6.428 2.715h493.714q3.714 0 6.428-2.715t2.714-6.428zM512 173.714v-54.857q0-3.714-2.714-6.428t-6.428-2.714h-310.857q-3.714 0-6.428 2.714t-2.714 6.428v54.857q0 3.715 2.714 6.428t6.428 2.715h310.857q3.714 0 6.428-2.715t2.714-6.428zM512 283.429v-54.857q0-3.714-2.714-6.428t-6.428-2.714h-310.857q-3.714 0-6.428 2.714t-2.714 6.428v54.857q0 3.714 2.714 6.429t6.428 2.714h310.857q3.714 0 6.428-2.714t2.714-6.428zM512 393.143v-54.857q0-3.715-2.714-6.428t-6.428-2.715h-493.714q-3.715 0-6.428 2.715t-2.715 6.428v54.857q0 3.715 2.715 6.428t6.428 2.715h493.714q3.714 0 6.428-2.715t2.714-6.428z" />
<glyph unicode="&#xf039;" d="M100.572 201.143q0-4-2.572-6.572l-82.285-82.286q-2.572-2.572-6.572-2.572-3.715 0-6.428 2.715t-2.715 6.428v164.571q0 3.714 2.715 6.428t6.428 2.715q4 0 6.572-2.572l82.285-82.285q2.572-2.571 2.572-6.572zM512 64v-54.857q0-3.714-2.714-6.428t-6.428-2.714h-493.714q-3.715 0-6.428 2.714t-2.715 6.428v54.857q0 3.715 2.715 6.428t6.428 2.715h493.714q3.714 0 6.428-2.715t2.714-6.428zM512 173.714v-54.857q0-3.714-2.714-6.428t-6.428-2.714h-310.857q-3.714 0-6.428 2.714t-2.714 6.428v54.857q0 3.715 2.714 6.428t6.428 2.715h310.857q3.714 0 6.428-2.715t2.714-6.428zM512 283.429v-54.857q0-3.714-2.714-6.428t-6.428-2.714h-310.857q-3.714 0-6.428 2.714t-2.714 6.428v54.857q0 3.714 2.714 6.429t6.428 2.714h310.857q3.714 0 6.428-2.714t2.714-6.428zM512 393.143v-54.857q0-3.715-2.714-6.428t-6.428-2.715h-493.714q-3.715 0-6.428 2.715t-2.715 6.428v54.857q0 3.715 2.715 6.428t6.428 2.715h493.714q3.714 0 6.428-2.715t2.714-6.428z" />
<glyph unicode="&#xf03b;" d="M182.857 274.286q0-22.857-16-38.857t-38.857-16-38.857 16-16 38.857 16 38.857 38.857 16 38.857-16 16-38.857zM475.428 164.572v-128h-402.286v54.857l91.428 91.428 45.714-45.714 146.286 146.286zM502.857 365.714h-457.143q-3.715 0-6.428-2.714t-2.715-6.429v-347.428q0-3.715 2.715-6.428t6.428-2.715h457.143q3.714 0 6.428 2.715t2.714 6.428v347.428q0 3.715-2.714 6.429t-6.428 2.714zM548.572 356.572v-347.428q0-18.857-13.428-32.286t-32.286-13.428h-457.143q-18.857 0-32.285 13.428t-13.428 32.286v347.428q0 18.857 13.428 32.286t32.285 13.429h457.143q18.857 0 32.286-13.429t13.428-32.286z" horiz-adv-x="549" />
<glyph unicode="&#xf041;" d="M0 256q0 60.572 42.857 103.428t103.429 42.857 103.428-42.857 42.857-103.428q0-31.143-9.428-51.143l-104-221.143q-4.572-9.428-13.572-14.857t-19.286-5.428-19.285 5.428-13.285 14.857l-104.285 221.143q-9.428 20-9.428 51.143zM73.143 256q0-30.285 21.428-51.715t51.715-21.429 51.714 21.429 21.428 51.714-21.428 51.715-51.714 21.428-51.715-21.428-21.428-51.715z" horiz-adv-x="293" />
<glyph unicode="&#xf050;" d="M347.428 164.572v36.571q0 7.428-5.428 12.857t-12.857 5.429h-73.143v73.143q0 7.429-5.428 12.857t-12.857 5.428h-36.571q-7.428 0-12.857-5.428t-5.429-12.857v-73.143h-73.143q-7.428 0-12.857-5.428t-5.428-12.857v-36.572q0-7.428 5.428-12.857t12.857-5.428h73.143v-73.143q0-7.428 5.428-12.857t12.857-5.428h36.571q7.428 0 12.857 5.428t5.429 12.857v73.143h73.143q7.428 0 12.857 5.428t5.428 12.857zM438.857 182.857q0-59.714-29.428-110.143t-79.857-79.857-110.143-29.428-110.143 29.428-79.857 79.857-29.428 110.143 29.428 110.143 79.857 79.857 110.143 29.428 110.143-29.428 79.857-79.857 29.428-110.143z" horiz-adv-x="439" />
<glyph unicode="&#xf052;" d="M328.286 118.286q0 7.428-5.428 12.857l-51.714 51.715 51.714 51.714q5.428 5.428 5.428 12.857 0 7.714-5.428 13.143l-25.714 25.714q-5.428 5.428-13.143 5.428-7.428 0-12.857-5.428l-51.714-51.714-51.714 51.714q-5.428 5.428-12.857 5.428-7.714 0-13.143-5.428l-25.715-25.714q-5.428-5.429-5.428-13.143 0-7.429 5.428-12.857l51.715-51.714-51.715-51.715q-5.428-5.428-5.428-12.857 0-7.714 5.428-13.143l25.715-25.714q5.428-5.428 13.143-5.428 7.429 0 12.857 5.428l51.714 51.714 51.714-51.714q5.428-5.428 12.857-5.428 7.714 0 13.143 5.428l25.714 25.714q5.428 5.428 5.428 13.143zM438.857 182.857q0-59.714-29.428-110.143t-79.857-79.857-110.143-29.428-110.143 29.428-79.857 79.857-29.428 110.143 29.428 110.143 79.857 79.857 110.143 29.428 110.143-29.428 79.857-79.857 29.428-110.143z" horiz-adv-x="439" />
<glyph unicode="&#xf053;" d="M366.857 229.143q0 8-5.143 13.143l-26 25.715q-5.428 5.428-12.857 5.428t-12.857-5.428l-116.572-116.286-64.572 64.571q-5.428 5.428-12.857 5.428t-12.857-5.428l-26-25.714q-5.143-5.143-5.143-13.143 0-7.714 5.143-12.857l103.428-103.428q5.428-5.428 12.857-5.428 7.714 0 13.143 5.428l155.143 155.143q5.143 5.143 5.143 12.857zM438.857 182.857q0-59.714-29.428-110.143t-79.857-79.857-110.143-29.428-110.143 29.428-79.857 79.857-29.428 110.143 29.428 110.143 79.857 79.857 110.143 29.428 110.143-29.428 79.857-79.857 29.428-110.143z" horiz-adv-x="439" />
<glyph unicode="&#xf054;" d="M256 45.714v54.857q0 4-2.571 6.572t-6.571 2.572h-54.857q-4 0-6.571-2.572t-2.571-6.572v-54.857q0-4 2.571-6.572t6.572-2.572h54.857q4 0 6.571 2.572t2.572 6.572zM329.143 237.714q0 25.143-15.857 46.572t-39.572 33.143-48.572 11.714q-69.428 0-106-60.857-4.285-6.857 2.285-12l37.715-28.572q2-1.714 5.428-1.714 4.572 0 7.143 3.429 15.143 19.429 24.571 26.285 9.714 6.857 24.572 6.857 13.714 0 24.428-7.429t10.714-16.857q0-10.857-5.714-17.429t-19.428-12.857q-18-8-33-24.714t-15-35.857v-10.285q0-4 2.571-6.572t6.571-2.572h54.857q4 0 6.571 2.572t2.572 6.572q0 5.428 6.143 14.143t15.572 14.143q9.143 5.143 14 8.143t13.143 10 12.714 13.715 8 17.286 3.572 23.143zM438.857 182.857q0-59.714-29.428-110.143t-79.857-79.857-110.143-29.428-110.143 29.428-79.857 79.857-29.428 110.143 29.428 110.143 79.857 79.857 110.143 29.428 110.143-29.428 79.857-79.857 29.428-110.143z" horiz-adv-x="439" />
<glyph unicode="&#xf05a;" d="M438.857 182.857v-36.572q0-15.143-9.286-25.857t-24.143-10.714h-201.143l83.715-84q10.857-10.286 10.857-25.715t-10.857-25.714l-21.428-21.715q-10.572-10.572-25.714-10.572-14.857 0-26 10.572l-186 186.286q-10.572 10.572-10.572 25.714 0 14.857 10.572 26l186 185.714q10.857 10.857 26 10.857 14.857 0 25.714-10.857l21.428-21.143q10.857-10.857 10.857-26t-10.857-26l-83.714-83.715h201.143q14.857 0 24.143-10.714t9.286-25.857z" horiz-adv-x="439" />
<glyph unicode="&#xf05b;" d="M420.572 164.572q0-15.428-10.572-26l-186-186q-11.143-10.572-26-10.572-14.572 0-25.714 10.572l-21.428 21.428q-10.857 10.857-10.857 26t10.857 26l83.714 83.714h-201.143q-14.857 0-24.143 10.715t-9.286 25.857v36.572q0 15.143 9.286 25.857t24.143 10.714h201.143l-83.714 84q-10.857 10.286-10.857 25.714t10.857 25.715l21.428 21.428q10.857 10.857 25.714 10.857 15.143 0 26-10.857l186-186q10.572-10 10.572-25.714z" horiz-adv-x="439" />
<glyph unicode="&#xf05c;" d="M460.286 161.429q0-14.572-10.572-25.714l-21.428-21.428q-10.857-10.857-26-10.857-15.428 0-25.714 10.857l-84 83.715v-201.143q0-14.857-10.714-24.143t-25.857-9.285h-36.571q-15.143 0-25.857 9.285t-10.714 24.143v201.143l-84-83.715q-10.285-10.857-25.715-10.857t-25.715 10.857l-21.428 21.428q-10.857 10.857-10.857 25.715 0 15.143 10.857 26l186 186q10 10.572 25.714 10.572 15.428 0 26-10.572l186-186q10.572-11.143 10.572-26z" horiz-adv-x="476" />
<glyph unicode="&#xf05d;" d="M460.286 201.143q0-15.143-10.572-25.715l-186-186.285q-11.143-10.572-26-10.572-15.143 0-25.714 10.572l-186 186.285q-10.857 10.286-10.857 25.715 0 15.143 10.857 26l21.143 21.428q11.143 10.571 26 10.571 15.143 0 25.715-10.571l84-84v201.143q0 14.857 10.857 25.714t25.715 10.857h36.572q14.857 0 25.714-10.857t10.857-25.714v-201.143l84 84q10.572 10.571 25.714 10.571 14.857 0 26-10.571l21.428-21.428q10.572-11.143 10.572-26z" horiz-adv-x="476" />
<glyph unicode="&#xf05f;" d="M215.714 137.143q0-3.715-2.857-6.572l-94.857-94.857 41.143-41.143q5.429-5.428 5.429-12.857t-5.428-12.857-12.857-5.428h-128q-7.428 0-12.857 5.428t-5.428 12.857v128q0 7.428 5.428 12.857t12.857 5.428 12.857-5.428l41.143-41.143 94.857 94.857q2.857 2.857 6.572 2.857t6.572-2.857l32.572-32.572q2.857-2.857 2.857-6.572zM438.857 384v-128q0-7.429-5.428-12.857t-12.857-5.428-12.857 5.428l-41.143 41.143-94.857-94.857q-2.857-2.857-6.572-2.857t-6.572 2.857l-32.572 32.572q-2.857 2.857-2.857 6.572t2.857 6.572l94.857 94.857-41.143 41.143q-5.428 5.428-5.428 12.857t5.428 12.857 12.857 5.429h128q7.428 0 12.857-5.429t5.428-12.857z" horiz-adv-x="439" />
<glyph unicode="&#xf060;" d="M219.429 164.572v-128q0-7.428-5.429-12.857t-12.857-5.428-12.857 5.428l-41.143 41.143-94.857-94.857q-2.857-2.857-6.572-2.857t-6.572 2.857l-32.572 32.572q-2.857 2.857-2.857 6.572t2.857 6.572l94.857 94.857-41.143 41.143q-5.428 5.428-5.428 12.857t5.428 12.857 12.857 5.428h128q7.428 0 12.857-5.428t5.429-12.857zM435.143 356.572q0-3.714-2.857-6.572l-94.857-94.857 41.143-41.143q5.428-5.429 5.428-12.857t-5.428-12.857-12.857-5.429h-128q-7.428 0-12.857 5.429t-5.429 12.857v128q0 7.428 5.428 12.857t12.857 5.429 12.857-5.429l41.143-41.143 94.857 94.857q2.857 2.857 6.572 2.857t6.572-2.857l32.572-32.572q2.857-2.857 2.857-6.572z" horiz-adv-x="439" />
<glyph unicode="&#xf064;" d="M219.429 402.286q59.715 0 110.143-29.428t79.857-79.857 29.428-110.143-29.428-110.143-79.857-79.857-110.143-29.428-110.143 29.428-79.857 79.857-29.428 110.143 29.428 110.143 79.857 79.857 110.143 29.428zM256 46v54.285q0 4-2.571 6.715t-6.286 2.714h-54.857q-3.714 0-6.572-2.857t-2.857-6.572v-54.286q0-3.714 2.857-6.572t6.572-2.857h54.857q3.714 0 6.286 2.714t2.571 6.715zM255.429 144.286l5.143 177.429q0 3.428-2.857 5.143-2.857 2.285-6.857 2.285h-62.857q-4 0-6.857-2.285-2.857-1.715-2.857-5.143l4.857-177.429q0-2.857 2.857-5t6.857-2.143h52.857q4 0 6.714 2.143t3 5z" horiz-adv-x="439" />
<glyph unicode="&#xf066;" d="M365.714 237.714q0 7.429-5.428 12.857t-12.857 5.428q-49.143 0-90.857-14.143t-74.143-38.285-67.285-62.715q-5.428-6-5.428-12.857 0-7.428 5.428-12.857t12.857-5.428q6.857 0 12.857 5.428 7.714 6.857 21.143 20.286t19.143 18.857q39.143 35.429 76.715 50.286t89.572 14.857q7.428 0 12.857 5.429t5.428 12.857zM512 294.286q0-27.143-5.714-55.143-13.143-64-52.714-109.428t-102.143-76.572q-61.143-30.857-125.143-30.857-42.285 0-81.715 13.428-4.286 1.428-25.143 12t-27.428 10.572q-4.572 0-11.285-9.143t-12.857-20-15-20-17.143-9.143q-8.572 0-14.572 3.143t-8.857 6.857-7.715 12q-0.571 1.143-1.715 3.143t-1.571 2.857-0.857 2.715-0.428 3.857q0 10 8.857 21t19.428 18.715 19.428 16 8.857 13.714q0 1.143-4 10.857t-4.572 12.572q-2.572 14.572-2.572 29.715 0 32.857 12.428 62.857t34 52.714 48.715 39.715 58.286 27.285q15.714 5.143 41.428 7.286t51.286 2.572 51 1.714 46.714 6.857 32.428 16.143l8.428 8.428t8.428 8 7.714 5.715 10.428 4.572 12.428 1.285q11.143 0 20.143-13.143t13.572-32 6.857-35.429 2.286-27.428z" />
<glyph unicode="&#xf068;" d="M475.428 164.572q-43.428 67.428-108.857 100.857 17.428-29.715 17.428-64.285 0-52.857-37.572-90.428t-90.428-37.572-90.428 37.572-37.572 90.428q0 34.572 17.428 64.286-65.428-33.429-108.857-100.857 38-58.572 95.285-93.285t124.143-34.715 124.143 34.715 95.286 93.285zM269.714 274.286q0 5.714-4 9.714t-9.714 4q-35.714 0-61.286-25.571t-25.572-61.286q0-5.714 4-9.714t9.714-4 9.714 4 4 9.714q0 24.572 17.428 42t42 17.428q5.714 0 9.714 4t4 9.715zM512 164.572q0-9.715-5.714-19.715-40-65.714-107.572-105.285t-142.714-39.572-142.714 39.714-107.572 105.143q-5.715 10-5.715 19.715t5.715 19.714q40 65.429 107.572 105.143t142.714 39.714 142.714-39.714 107.572-105.143q5.714-10 5.714-19.714z" />
<glyph unicode="&#xf06a;" d="M292.572 46v54.285q0 4-2.714 6.715t-6.428 2.714h-54.857q-3.714 0-6.429-2.714t-2.714-6.715v-54.285q0-4 2.714-6.715t6.428-2.714h54.857q3.714 0 6.428 2.714t2.714 6.715zM292 152.857l5.143 131.143q0 3.429-2.857 5.429-3.714 3.143-6.857 3.143h-62.857q-3.143 0-6.857-3.143-2.857-2-2.857-6l4.857-130.572q0-2.857 2.857-4.714t6.857-1.857h52.857q4 0 6.714 1.857t3 4.714zM288 419.714l219.428-402.286q10-18-0.572-36-4.857-8.285-13.286-13.143t-18.143-4.857h-438.857q-9.715 0-18.143 4.857t-13.286 13.143q-10.572 18-0.572 36l219.429 402.286q4.857 8.857 13.429 14t18.572 5.143 18.572-5.143 13.428-14z" />
<glyph unicode="&#xf06c;" d="M36.572-36.571h82.285v82.286h-82.285v-82.286zM137.143-36.571h91.429v82.286h-91.428v-82.286zM36.572 64h82.285v91.428h-82.285v-91.428zM137.143 64h91.429v91.428h-91.428v-91.428zM36.572 173.714h82.285v82.285h-82.285v-82.285zM246.857-36.571h91.429v82.286h-91.428v-82.286zM137.143 173.714h91.429v82.285h-91.428v-82.285zM356.572-36.571h82.286v82.286h-82.286v-82.286zM246.857 64h91.429v91.428h-91.428v-91.428zM146.286 310.857v82.285q0 3.715-2.714 6.428t-6.428 2.715h-18.285q-3.715 0-6.428-2.715t-2.715-6.428v-82.285q0-3.715 2.715-6.428t6.428-2.715h18.285q3.714 0 6.428 2.715t2.714 6.428zM356.572 64h82.286v91.428h-82.286v-91.428zM246.857 173.714h91.429v82.285h-91.428v-82.285zM356.572 173.714h82.286v82.285h-82.286v-82.285zM365.714 310.857v82.285q0 3.715-2.714 6.428t-6.428 2.715h-18.286q-3.714 0-6.428-2.715t-2.714-6.428v-82.285q0-3.715 2.714-6.428t6.428-2.715h18.286q3.714 0 6.428 2.715t2.714 6.428zM475.428 329.143v-365.714q0-14.857-10.857-25.714t-25.714-10.857h-402.286q-14.857 0-25.715 10.857t-10.857 25.715v365.714q0 14.857 10.857 25.714t25.715 10.857h36.572v27.429q0 18.857 13.428 32.285t32.285 13.428h18.285q18.857 0 32.285-13.428t13.428-32.285v-27.429h109.714v27.429q0 18.857 13.428 32.285t32.286 13.428h18.286q18.857 0 32.286-13.428t13.428-32.285v-27.429h36.572q14.857 0 25.714-10.857t10.857-25.714z" horiz-adv-x="476" />
<glyph unicode="&#xf07b;" d="M0 64v274.286q0 26.285 18.857 45.143t45.143 18.857h91.428q26.286 0 45.143-18.857t18.857-45.143v-9.143h192q26.286 0 45.143-18.857t18.857-45.143v-201.143q0-26.286-18.857-45.143t-45.143-18.857h-347.428q-26.285 0-45.143 18.857t-18.857 45.143z" horiz-adv-x="476" />
<glyph unicode="&#xf07c;" d="M0 64v274.286q0 26.285 18.857 45.143t45.143 18.857h91.428q26.286 0 45.143-18.857t18.857-45.143v-9.143h155.428q26.286 0 45.143-18.857t18.857-45.143v-45.715h-237.714q-26.857 0-56.286-13.572t-46.857-34.143l-97.715-114.857q0 1.143-0.143 3.572t-0.143 3.572zM20.857 16q0 8.857 8.857 18.857l96 113.143q12.286 14.572 34.428 24.715t41 10.143h310.857q9.715 0 17.285-3.714t7.572-12.286q0-8.857-8.857-18.857l-96-113.143q-12.286-14.572-34.428-24.714t-41-10.143h-310.857q-9.715 0-17.285 3.715t-7.572 12.285z" horiz-adv-x="549" />
<glyph unicode="&#xf081;" d="M237.714 429.714v-382.572l-128.286-67.428q-6.285-3.428-11.428-3.428-6 0-9 4.143t-3 10.143q0 1.715 0.572 5.715l24.572 142.857-104 101.143q-7.143 7.714-7.143 13.714 0 10.572 16 13.143l143.428 20.857 64.286 130q5.428 11.714 14 11.714z" horiz-adv-x="256" />
<glyph unicode="&#xf08f;" d="M365.714 98q0 3.143-0.572 4.572-0.857 2.285-11 8.428t-25.286 14.143l-15.143 8.286q-1.428 0.857-5.428 3.714t-7.143 4.286-6 1.428q-5.143 0-13.428-9.286t-16.286-18.714-12.572-9.428q-2 0-4.714 1t-4.428 1.857-4.857 2.715-4 2.428q-28.285 15.714-48.715 36.143t-36.143 48.715q-0.571 0.857-2.429 4t-2.714 4.857-1.857 4.429-1 4.714q0 3.714 5.857 9.572t12.857 11 12.857 11.286 5.857 10.429q0 2.857-1.429 6t-4.286 7.143-3.714 5.429q-0.857 1.714-4.286 8.143t-7.143 13-7.571 13.572-7.143 11.571-4.714 5.143-4.571 0.572q-13.715 0-28.857-6.286-13.143-6-22.857-27t-9.715-37.286q0-4.571 0.715-9.714t1.428-8.714 2.572-9.428 2.857-8.428 3.572-9.428 3.143-8.572q17.143-46.857 61.857-91.571t91.572-61.857q1.714-0.572 8.572-3.143t9.428-3.572 8.428-2.857 9.428-2.572 8.714-1.428 9.714-0.714q16.286 0 37.286 9.714t27 22.857q6.286 15.143 6.286 28.857zM438.857 320v-274.286q0-34-24.143-58.143t-58.143-24.143h-274.286q-34 0-58.143 24.143t-24.143 58.143v274.286q0 34 24.143 58.143t58.143 24.143h274.286q34 0 58.143-24.143t24.143-58.143z" horiz-adv-x="439" />
<glyph unicode="&#xf090;" d="M462.857 322.286q-19.143-28-46.286-47.715 0.286-4 0.286-12 0-37.143-10.857-74.143t-33-71-52.714-60.143-73.714-41.714-92.286-15.572q-77.428 0-141.714 41.428 10-1.143 22.285-1.143 64.285 0 114.572 39.428-30 0.572-53.715 18.428t-32.572 45.572q9.428-1.428 17.428-1.428 12.285 0 24.285 3.143-32 6.572-53 31.857t-21 58.715v1.143q19.428-10.857 41.715-11.714-18.857 12.571-30 32.857t-11.143 44q0 25.143 12.572 46.571 34.572-42.571 84.143-68.143t106.143-28.429q-2.286 10.857-2.286 21.143 0 38.286 27 65.286t65.286 27q40 0 67.428-29.143 31.143 6 58.572 22.286-10.572-32.857-40.572-50.857 26.572 2.857 53.143 14.286z" horiz-adv-x="476" />
<glyph unicode="&#xf094;" d="M502.857 402.286q18.857 0 32.286-13.428t13.428-32.286v-347.428q0-18.857-13.428-32.286t-32.286-13.428h-457.143q-18.857 0-32.285 13.428t-13.428 32.286v347.428q0 18.857 13.428 32.286t32.285 13.429h457.143zM45.715 365.714q-3.715 0-6.428-2.714t-2.715-6.429v-64h475.428v64q0 3.715-2.714 6.429t-6.428 2.714h-457.143zM502.857 0q3.714 0 6.428 2.714t2.714 6.428v173.715h-475.428v-173.715q0-3.714 2.715-6.428t6.428-2.714h457.143zM73.143 36.572v36.572h73.143v-36.572h-73.143zM182.857 36.572v36.572h109.715v-36.572h-109.714z" horiz-adv-x="549" />
<glyph unicode="&#xf09e;" d="M365.714 164.572v36.571q0 7.428-5.428 12.857t-12.857 5.429h-143.429l54 54q5.428 5.428 5.428 12.857t-5.428 12.857l-26 26q-5.143 5.143-12.857 5.143t-12.857-5.143l-129.428-129.428q-5.143-5.143-5.143-12.857t5.143-12.857l129.428-129.428q5.143-5.143 12.857-5.143t12.857 5.143l26 26q5.143 5.143 5.143 12.857t-5.143 12.857l-54 54h143.428q7.428 0 12.857 5.428t5.428 12.857zM438.857 182.857q0-59.714-29.428-110.143t-79.857-79.857-110.143-29.428-110.143 29.428-79.857 79.857-29.428 110.143 29.428 110.143 79.857 79.857 110.143 29.428 110.143-29.428 79.857-79.857 29.428-110.143z" horiz-adv-x="439" />
<glyph unicode="&#xf09f;" d="M367.143 182.857q0 7.715-5.143 12.857l-129.429 129.428q-5.143 5.143-12.857 5.143t-12.857-5.143l-26-26q-5.143-5.143-5.143-12.857t5.143-12.857l54-54h-143.429q-7.428 0-12.857-5.428t-5.428-12.857v-36.572q0-7.428 5.428-12.857t12.857-5.428h143.429l-54-54q-5.429-5.428-5.429-12.857t5.428-12.857l26-26q5.143-5.143 12.857-5.143t12.857 5.143l129.428 129.428q5.143 5.143 5.143 12.857zM438.857 182.857q0-59.714-29.428-110.143t-79.857-79.857-110.143-29.428-110.143 29.428-79.857 79.857-29.428 110.143 29.428 110.143 79.857 79.857 110.143 29.428 110.143-29.428 79.857-79.857 29.428-110.143z" horiz-adv-x="439" />
<glyph unicode="&#xf0a0;" d="M366.857 183.143q0 7.714-5.143 12.857l-129.429 129.429q-5.143 5.143-12.857 5.143t-12.857-5.143l-129.428-129.429q-5.143-5.143-5.143-12.857t5.143-12.857l26-26q5.143-5.143 12.857-5.143t12.857 5.143l54 54v-143.429q0-7.428 5.428-12.857t12.857-5.428h36.571q7.428 0 12.857 5.428t5.429 12.857v143.429l54-54q5.428-5.428 12.857-5.428t12.857 5.428l26 26q5.143 5.143 5.143 12.857zM438.857 182.857q0-59.714-29.428-110.143t-79.857-79.857-110.143-29.428-110.143 29.428-79.857 79.857-29.428 110.143 29.428 110.143 79.857 79.857 110.143 29.428 110.143-29.428 79.857-79.857 29.428-110.143z" horiz-adv-x="439" />
<glyph unicode="&#xf0a1;" d="M366.857 182.572q0 7.714-5.143 12.857l-26 26q-5.143 5.143-12.857 5.143t-12.857-5.143l-54-54v143.429q0 7.428-5.428 12.857t-12.857 5.429h-36.571q-7.428 0-12.857-5.429t-5.429-12.857v-143.429l-54 54q-5.428 5.428-12.857 5.428t-12.857-5.428l-26-26q-5.143-5.143-5.143-12.857t5.143-12.857l129.428-129.428q5.143-5.143 12.857-5.143t12.857 5.143l129.428 129.428q5.143 5.143 5.143 12.857zM438.857 182.857q0-59.714-29.428-110.143t-79.857-79.857-110.143-29.428-110.143 29.428-79.857 79.857-29.428 110.143 29.428 110.143 79.857 79.857 110.143 29.428 110.143-29.428 79.857-79.857 29.428-110.143z" horiz-adv-x="439" />
<glyph unicode="&#xf0a7;" d="M366.572 284.286l-101.428-101.429 101.428-101.428 41.143 41.143q8.286 8.857 20 4 11.143-4.857 11.143-16.857v-128q0-7.428-5.428-12.857t-12.857-5.428h-128q-12 0-16.857 11.428-4.857 11.143 4 19.715l41.143 41.143-101.428 101.428-101.428-101.428 41.143-41.143q8.857-8.572 4-19.714-4.857-11.428-16.857-11.428h-128q-7.428 0-12.857 5.428t-5.428 12.857v128q0 12 11.428 16.857 11.143 4.857 19.715-4l41.143-41.143 101.428 101.428-101.428 101.429-41.143-41.143q-5.428-5.429-12.857-5.429-3.428 0-6.857 1.429-11.428 4.857-11.428 16.857v128q0 7.429 5.428 12.857t12.857 5.428h128q12 0 16.857-11.428 4.857-11.143-4-19.714l-41.143-41.143 101.428-101.428 101.428 101.428-41.143 41.143q-8.857 8.572-4 19.714 4.857 11.428 16.857 11.428h128q7.428 0 12.857-5.428t5.428-12.857v-128q0-12-11.143-16.857-3.714-1.429-7.143-1.429-7.428 0-12.857 5.428z" horiz-adv-x="439" />
<glyph unicode="&#xf0a9;" d="M416 91.429q0 11.428-8 19.428l-59.428 59.428q-8 8-19.428 8-12 0-20.572-9.143 0.857-0.857 5.428-5.285t6.143-6.143 4.286-5.428 3.714-7.285 1-7.857q0-11.428-8-19.428t-19.428-8q-4.286 0-7.857 1t-7.286 3.715-5.428 4.285-6.143 6.143-5.286 5.428q-9.428-8.857-9.428-20.857 0-11.428 8-19.428l58.857-59.143q7.714-7.714 19.428-7.714 11.428 0 19.428 7.428l42 41.714q8 8 8 19.143zM215.143 292.857q0 11.428-8 19.428l-58.857 59.143q-8 8-19.428 8-11.143 0-19.428-7.714l-42-41.714q-8-8-8-19.143 0-11.428 8-19.428l59.428-59.429q7.714-7.714 19.428-7.714 12 0 20.572 8.857-0.857 0.857-5.428 5.286t-6.143 6.143-4.286 5.428-3.714 7.285-1 7.857q0 11.429 8 19.429t19.429 8q4.286 0 7.857-1t7.286-3.715 5.429-4.285 6.143-6.143 5.286-5.428q9.429 8.857 9.429 20.857zM470.857 91.429q0-34.285-24.286-58l-42-41.714q-23.714-23.715-58-23.715-34.572 0-58.286 24.286l-58.857 59.143q-23.715 23.715-23.715 58 0 35.143 25.143 59.715l-25.143 25.143q-24.572-25.143-59.428-25.143-34.285 0-58.285 24l-59.428 59.428q-24 24-24 58.286t24.285 58l42 41.714q23.715 23.714 58 23.714 34.572 0 58.286-24.286l58.857-59.143q23.715-23.715 23.715-58 0-35.143-25.143-59.715l25.143-25.143q24.572 25.143 59.428 25.143 34.286 0 58.286-24l59.428-59.428q24-24 24-58.286z" horiz-adv-x="476" />
<glyph unicode="&#xf0aa;" d="M548.572 109.714q0-45.428-32.143-77.572t-77.572-32.143h-310.857q-52.857 0-90.428 37.572t-37.572 90.428q0 37.715 20.285 69t53.428 46.714q-0.572 8-0.572 12.286 0 60.571 42.857 103.429t103.428 42.857q45.143 0 81.857-25.143t53.572-65.714q20 17.714 47.428 17.714 30.286 0 51.714-21.429t21.428-51.714q0-21.428-11.714-39.428 36.857-8.572 60.857-38.429t24-68.428z" horiz-adv-x="549" />
<glyph unicode="&#xf0ae;" d="M401.143 43.143q0-33.428-22.572-56t-56-22.572q-38.572 0-67.143 28.572l-222 221.714q-32.285 32.857-32.285 77.429 0 45.428 31.428 77.143t76.857 31.714q45.143 0 78-32.285l172.857-173.143q2.857-2.857 2.857-6.286 0-4.571-8.714-13.285t-13.286-8.715q-3.714 0-6.572 2.857l-173.143 173.428q-22.571 22-51.715 22-30.285 0-51.143-21.428t-20.857-51.714q0-30 21.715-51.715l221.714-222q18-18 41.428-18 18.286 0 30.286 12t12 30.285q0 23.428-18 41.428l-166 166q-7.428 6.857-17.143 6.857-8.286 0-13.714-5.429t-5.429-13.714q0-9.143 7.143-16.857l117.143-117.143q2.857-2.857 2.857-6.286 0-4.572-8.857-13.428t-13.428-8.857q-3.429 0-6.286 2.857l-117.143 117.143q-18 17.429-18 42.571 0 23.429 16.285 39.714t39.715 16.286q25.143 0 42.571-18l166-166q28.572-28 28.572-67.143z" horiz-adv-x="403" />
<glyph unicode="&#xf0b1;" d="M438.857 54.857v-36.572q0-7.428-5.428-12.857t-12.857-5.428h-402.286q-7.428 0-12.857 5.428t-5.428 12.857v36.572q0 7.428 5.428 12.857t12.857 5.428h402.286q7.428 0 12.857-5.428t5.428-12.857zM438.857 201.143v-36.571q0-7.428-5.428-12.857t-12.857-5.428h-402.286q-7.428 0-12.857 5.428t-5.428 12.857v36.572q0 7.428 5.428 12.857t12.857 5.429h402.286q7.428 0 12.857-5.428t5.428-12.857zM438.857 347.429v-36.571q0-7.428-5.428-12.857t-12.857-5.429h-402.286q-7.428 0-12.857 5.428t-5.428 12.857v36.572q0 7.428 5.428 12.857t12.857 5.429h402.286q7.428 0 12.857-5.429t5.428-12.857z" horiz-adv-x="439" />
<glyph unicode="&#xf0b2;" d="M109.715 36.572q0-22.857-16-38.857t-38.857-16-38.857 16-16 38.857 16 38.857 38.857 16 38.857-16 16-38.857zM109.715 182.857q0-22.857-16-38.857t-38.857-16-38.857 16-16 38.857 16 38.857 38.857 16 38.857-16 16-38.857zM512 64v-54.857q0-3.714-2.714-6.428t-6.428-2.714h-347.428q-3.714 0-6.428 2.714t-2.714 6.428v54.857q0 3.715 2.714 6.428t6.428 2.715h347.428q3.714 0 6.428-2.715t2.714-6.428zM109.715 329.143q0-22.857-16-38.857t-38.857-16-38.857 16-16 38.857 16 38.857 38.857 16 38.857-16 16-38.857zM512 210.286v-54.857q0-3.714-2.714-6.428t-6.428-2.714h-347.428q-3.714 0-6.428 2.714t-2.714 6.428v54.857q0 3.714 2.714 6.429t6.428 2.714h347.428q3.714 0 6.428-2.714t2.714-6.428zM512 356.572v-54.857q0-3.714-2.714-6.428t-6.428-2.714h-347.428q-3.714 0-6.428 2.714t-2.714 6.428v54.857q0 3.714 2.714 6.428t6.428 2.714h347.428q3.714 0 6.428-2.714t2.714-6.428z" />
<glyph unicode="&#xf0b3;" d="M108.857-24q0-22.857-15.572-36t-38.715-13.143q-30.285 0-49.143 18.857l16.285 25.143q14-12.857 30.285-12.857 8.285 0 14.428 4.143t6.143 12.143q0 18.286-30 16l-7.428 16q2.285 2.857 9.285 12.428t12.143 15.428 10.572 11v0.286q-4.572 0-13.857-0.286t-13.857-0.285v-15.143h-30.285v43.428h95.143v-25.143l-27.143-32.857q14.572-3.428 23.143-14t8.572-25.143zM109.428 155.143v-45.428h-103.428q-1.715 10.285-1.715 15.428 0 14.572 6.715 26.572t16.143 19.428 18.857 13.571 16.143 12.428 6.715 12.857q0 7.143-4.143 11t-11.285 3.857q-13.143 0-23.143-16.572l-24.285 16.857q6.857 14.571 20.428 22.715t30.143 8.143q20.857 0 35.143-11.857t14.285-32.143q0-14.286-9.715-26.143t-21.428-18.429-21.572-14.428-10.143-15h36.285v17.143h30zM512 64v-54.857q0-3.714-2.714-6.428t-6.428-2.714h-347.428q-3.714 0-6.428 2.714t-2.714 6.428v54.857q0 4 2.571 6.572t6.571 2.572h347.428q3.714 0 6.428-2.714t2.714-6.428zM109.715 320.857v-28.286h-95.715v28.286h30.572q0 11.714 0.143 34.857t0.143 34.572v3.428h-0.572q-2.285-4.857-14.285-15.428l-20.285 21.714 38.857 36.286h30.285v-115.429h30.857zM512 210.286v-54.857q0-3.714-2.714-6.428t-6.428-2.714h-347.428q-3.714 0-6.428 2.714t-2.714 6.428v54.857q0 4 2.571 6.571t6.571 2.571h347.428q3.714 0 6.428-2.714t2.714-6.429zM512 356.572v-54.857q0-3.714-2.714-6.428t-6.428-2.714h-347.428q-3.714 0-6.428 2.714t-2.714 6.428v54.857q0 3.714 2.714 6.428t6.428 2.714h347.428q3.714 0 6.428-2.714t2.714-6.428z" />
<glyph unicode="&#xf0b4;" d="M502.857 182.857q4 0 6.572-2.572t2.571-6.572v-18.285q0-4-2.572-6.572t-6.572-2.572h-493.714q-4 0-6.572 2.572t-2.571 6.572v18.285q0 4 2.571 6.572t6.572 2.572h493.714zM138 201.143q-8 10-14.572 22.857-13.715 27.715-13.715 53.714 0 51.715 38.286 88.286 38 36.286 112.286 36.286 14.286 0 47.714-5.428 18.857-3.428 50.572-13.715 2.857-10.857 6-33.714 4-35.143 4-52.286 0-5.143-1.428-12.857l-3.428-0.857-24 1.714-4 0.572q-14.286 42.572-29.428 58.572-25.143 26-60 26-32.572 0-52-16.857-19.143-16.571-19.143-41.714 0-20.857 18.857-40t79.714-36.857q19.714-5.714 49.428-18.857 16.572-8 27.143-14.857h-212.286zM282.857 128h117.428q2-11.143 2-26.286 0-31.714-11.714-60.572-6.572-15.714-20.286-29.714-10.572-10-31.143-23.143-22.857-13.714-43.714-18.857-22.857-6-58-6-32.572 0-55.714 6.572l-40 11.428q-16.285 4.572-20.572 8-2.285 2.286-2.285 6.286v3.714q0 30.857-0.572 44.572-0.285 8.572 0 19.428l0.572 10.572v12.572l29.143 0.572q4.286-9.714 8.572-20.285t6.428-16 3.571-7.715q10-16.285 22.857-26.857 12.286-10.285 30-16.285 16.857-6.286 37.714-6.286 18.286 0 39.714 7.715 22 7.428 34.857 24.572 13.428 17.428 13.428 36.857 0 24-23.143 44.857-9.714 8.286-39.143 20.286z" />
<glyph unicode="&#xf0b6;" d="M146.286 45.714v54.857q0 4-2.571 6.572t-6.571 2.572h-91.428q-4 0-6.572-2.572t-2.572-6.572v-54.857q0-4 2.572-6.572t6.572-2.572h91.428q4 0 6.572 2.572t2.571 6.572zM146.286 155.429v54.857q0 4-2.571 6.571t-6.571 2.571h-91.428q-4 0-6.572-2.571t-2.572-6.572v-54.857q0-4 2.572-6.572t6.572-2.572h91.428q4 0 6.572 2.572t2.571 6.572zM292.572 45.714v54.857q0 4-2.572 6.572t-6.572 2.572h-91.428q-4 0-6.572-2.572t-2.571-6.572v-54.857q0-4 2.571-6.572t6.572-2.572h91.428q4 0 6.572 2.572t2.572 6.572zM146.286 265.143v54.857q0 4-2.571 6.572t-6.571 2.571h-91.428q-4 0-6.572-2.571t-2.572-6.572v-54.857q0-4 2.572-6.572t6.572-2.571h91.428q4 0 6.572 2.571t2.571 6.572zM292.572 155.429v54.857q0 4-2.572 6.571t-6.572 2.571h-91.428q-4 0-6.572-2.571t-2.571-6.572v-54.857q0-4 2.571-6.572t6.572-2.572h91.428q4 0 6.572 2.572t2.572 6.572zM438.857 45.714v54.857q0 4-2.572 6.572t-6.572 2.572h-91.428q-4 0-6.572-2.572t-2.572-6.572v-54.857q0-4 2.572-6.572t6.572-2.572h91.428q4 0 6.572 2.572t2.572 6.572zM292.572 265.143v54.857q0 4-2.572 6.572t-6.572 2.571h-91.428q-4 0-6.572-2.571t-2.571-6.572v-54.857q0-4 2.571-6.572t6.572-2.571h91.428q4 0 6.572 2.571t2.572 6.572zM438.857 155.429v54.857q0 4-2.572 6.571t-6.572 2.571h-91.428q-4 0-6.572-2.571t-2.572-6.572v-54.857q0-4 2.572-6.572t6.572-2.572h91.428q4 0 6.572 2.572t2.572 6.572zM438.857 265.143v54.857q0 4-2.572 6.572t-6.572 2.571h-91.428q-4 0-6.572-2.571t-2.572-6.572v-54.857q0-4 2.572-6.572t6.572-2.571h91.428q4 0 6.572 2.571t2.572 6.572zM475.428 356.572v-310.857q0-18.857-13.428-32.285t-32.286-13.428h-384q-18.857 0-32.285 13.428t-13.428 32.285v310.857q0 18.857 13.428 32.286t32.285 13.429h384q18.857 0 32.286-13.429t13.428-32.286z" horiz-adv-x="476" />
<glyph unicode="&#xf0b7;" d="M340 272.857l83.714 83.714-30.572 30.571-83.714-83.714zM467.714 356.572q0-7.714-5.143-12.857l-367.428-367.428q-5.143-5.143-12.857-5.143t-12.857 5.143l-56.572 56.572q-5.143 5.143-5.143 12.857t5.143 12.857l367.428 367.429q5.143 5.143 12.857 5.143t12.857-5.143l56.572-56.572q5.143-5.143 5.143-12.857zM81.715 410.857l28-8.572-28-8.572-8.572-28-8.572 28-28 8.572 28 8.572 8.572 28zM181.714 364.572l56-17.143-56-17.143-17.143-56-17.143 56-56 17.143 56 17.143 17.143 56zM447.428 228l28-8.571-28-8.572-8.572-28-8.572 28-28 8.572 28 8.572 8.572 28zM264.572 410.857l28-8.572-28-8.572-8.572-28-8.572 28-28 8.572 28 8.572 8.572 28z" horiz-adv-x="476" />
<glyph unicode="&#xf0be;" d="M292.572 237.714q0-7.429-5.428-12.857l-128-128q-5.428-5.428-12.857-5.428t-12.857 5.428l-128 128q-5.428 5.428-5.428 12.857t5.428 12.857 12.857 5.428h256q7.428 0 12.857-5.428t5.428-12.857z" horiz-adv-x="293" />
<glyph unicode="&#xf0bf;" d="M292.572 91.429q0-7.428-5.428-12.857t-12.857-5.428h-256q-7.428 0-12.857 5.428t-5.428 12.857 5.428 12.857l128 128q5.429 5.428 12.857 5.428t12.857-5.428l128-128q5.428-5.428 5.428-12.857z" horiz-adv-x="293" />
<glyph unicode="&#xf0c0;" d="M182.857 310.857v-256q0-7.428-5.429-12.857t-12.857-5.428-12.857 5.428l-128 128q-5.428 5.428-5.428 12.857t5.428 12.857l128 128q5.428 5.429 12.857 5.429t12.857-5.429 5.428-12.857z" horiz-adv-x="183" />
<glyph unicode="&#xf0c1;" d="M164.571 182.857q0-7.428-5.429-12.857l-128-128q-5.428-5.428-12.857-5.428t-12.857 5.428-5.428 12.857v256q0 7.428 5.428 12.857t12.857 5.428 12.857-5.428l128-128q5.428-5.429 5.428-12.857z" horiz-adv-x="183" />
<glyph unicode="&#xf0d3;" d="M365.714 173.714q0 4-2.572 6.572t-6.572 2.571h-64v100.572q0 3.714-2.714 6.428t-6.428 2.714h-54.857q-3.714 0-6.429-2.714t-2.714-6.428v-100.572h-64q-3.714 0-6.428-2.714t-2.714-6.428q0-4 2.571-6.572l100.571-100.572q2.571-2.572 6.572-2.572t6.572 2.572l100.286 100.285q2.857 3.428 2.857 6.857zM548.572 109.714q0-45.428-32.143-77.572t-77.572-32.143h-310.857q-52.857 0-90.428 37.572t-37.572 90.428q0 37.143 20 68.572t53.715 47.143q-0.572 8.571-0.572 12.286 0 60.572 42.857 103.428t103.428 42.857q44.572 0 81.572-24.857t53.857-66q20.286 17.715 47.428 17.715 30.286 0 51.714-21.428t21.428-51.715q0-21.714-11.714-39.428 37.143-8.857 61-38.715t23.857-68.143z" horiz-adv-x="549" />
<glyph unicode="&#xf0d4;" d="M365.714 192q0 4-2.572 6.571l-100.572 100.571q-2.572 2.572-6.572 2.572t-6.572-2.572l-100.286-100.285q-2.857-3.429-2.857-6.857 0-4 2.571-6.571t6.572-2.571h64v-100.571q0-3.715 2.714-6.428t6.428-2.715h54.857q3.714 0 6.428 2.715t2.714 6.428v100.572h64q3.714 0 6.428 2.714t2.714 6.428zM548.572 109.714q0-45.428-32.143-77.572t-77.572-32.143h-310.857q-52.857 0-90.428 37.572t-37.572 90.428q0 37.143 20 68.572t53.715 47.143q-0.572 8.571-0.572 12.286 0 60.572 42.857 103.428t103.428 42.857q44.572 0 81.572-24.857t53.857-66q20.286 17.715 47.428 17.715 30.286 0 51.714-21.428t21.428-51.715q0-21.714-11.714-39.428 37.143-8.857 61-38.715t23.857-68.143z" horiz-adv-x="549" />
<glyph unicode="&#xf0ec;" d="M512 155.429v237.714q0 3.715-2.714 6.429t-6.428 2.714h-457.143q-3.715 0-6.428-2.714t-2.715-6.429v-237.714q0-3.714 2.715-6.428t6.428-2.714h457.143q3.714 0 6.428 2.714t2.714 6.428zM548.572 393.143v-310.857q0-18.857-13.428-32.285t-32.286-13.428h-155.429q0-10.572 4.572-22.143t9.143-20.285 4.572-12.428q0-7.428-5.428-12.857t-12.857-5.428h-146.286q-7.428 0-12.857 5.428t-5.429 12.857q0 4 4.572 12.572t9.143 20 4.571 22.286h-155.429q-18.857 0-32.285 13.428t-13.428 32.285v310.857q0 18.857 13.428 32.286t32.285 13.429h457.143q18.857 0 32.285-13.429t13.428-32.286z" horiz-adv-x="549" />
<glyph unicode="&#xf0f0;" d="M219.429 338.286q-42.285 0-78-20.857t-56.572-56.571-20.857-78 20.857-78 56.572-56.572 78-20.857 78 20.857 56.572 56.572 20.857 78-20.857 78-56.572 56.571-78 20.857zM438.857 182.857q0-59.714-29.428-110.143t-79.857-79.857-110.143-29.428-110.143 29.428-79.857 79.857-29.428 110.143 29.428 110.143 79.857 79.857 110.143 29.428 110.143-29.428 79.857-79.857 29.428-110.143z" horiz-adv-x="439" />
<glyph unicode="&#xf0f1;" d="M219.429 164.572v-109.715q0-22.857-16-38.857t-38.857-16h-109.715q-22.857 0-38.857 16t-16 38.857v201.143q0 29.714 11.572 56.714t31.285 46.715 46.715 31.285 56.714 11.572h18.286q7.428 0 12.857-5.428t5.429-12.857v-36.571q0-7.429-5.428-12.857t-12.857-5.428h-18.285q-30.285 0-51.715-21.429t-21.428-51.714v-9.143q0-11.429 8-19.429t19.428-8h64q22.857 0 38.857-16t16-38.857zM475.428 164.572v-109.715q0-22.857-16-38.857t-38.857-16h-109.714q-22.857 0-38.857 16t-16 38.857v201.143q0 29.714 11.572 56.714t31.286 46.715 46.714 31.285 56.714 11.572h18.286q7.428 0 12.857-5.428t5.428-12.857v-36.571q0-7.429-5.428-12.857t-12.857-5.428h-18.286q-30.286 0-51.714-21.429t-21.428-51.714v-9.143q0-11.429 8-19.429t19.428-8h64q22.857 0 38.857-16t16-38.857z" horiz-adv-x="476" />
<glyph unicode="&#xf0f2;" d="M219.429 347.429v-201.143q0-29.714-11.571-56.714t-31.286-46.715-46.714-31.285-56.715-11.572h-18.285q-7.428 0-12.857 5.428t-5.428 12.857v36.572q0 7.428 5.428 12.857t12.857 5.428h18.285q30.285 0 51.715 21.428t21.428 51.715v9.143q0 11.428-8 19.428t-19.428 8h-64q-22.857 0-38.857 16t-16 38.857v109.714q0 22.857 16 38.857t38.857 16h109.715q22.857 0 38.857-16t16-38.857zM475.428 347.429v-201.143q0-29.714-11.572-56.714t-31.286-46.715-46.714-31.285-56.714-11.572h-18.286q-7.428 0-12.857 5.428t-5.428 12.857v36.572q0 7.428 5.428 12.857t12.857 5.428h18.286q30.286 0 51.714 21.428t21.428 51.715v9.143q0 11.428-8 19.428t-19.428 8h-64q-22.857 0-38.857 16t-16 38.857v109.714q0 22.857 16 38.857t38.857 16h109.714q22.857 0 38.857-16t16-38.857z" horiz-adv-x="476" />
<glyph unicode="&#xf0f4;" d="M438.857 182.857q0-59.714-29.428-110.143t-79.857-79.857-110.143-29.428-110.143 29.428-79.857 79.857-29.428 110.143 29.428 110.143 79.857 79.857 110.143 29.428 110.143-29.428 79.857-79.857 29.428-110.143z" horiz-adv-x="439" />
<glyph unicode="&#xf103;" d="M176.286 39.143l-14.286-14.286q-2.857-2.857-6.572-2.857t-6.572 2.857l-133.143 133.143q-2.857 2.857-2.857 6.572t2.857 6.572l133.143 133.143q2.857 2.857 6.572 2.857t6.572-2.857l14.286-14.286q2.857-2.857 2.857-6.572t-2.857-6.572l-112.285-112.286 112.285-112.285q2.857-2.857 2.857-6.572t-2.857-6.572zM345.143 344l-106.572-368.857q-1.143-3.714-4.428-5.572t-6.714-0.714l-17.714 4.857q-3.714 1.143-5.572 4.428t-0.714 7l106.572 368.857q1.143 3.715 4.428 5.572t6.714 0.715l17.714-4.857q3.714-1.143 5.572-4.428t0.714-7zM532.857 158l-133.143-133.143q-2.857-2.857-6.572-2.857t-6.572 2.857l-14.286 14.286q-2.857 2.857-2.857 6.572t2.857 6.572l112.286 112.285-112.286 112.286q-2.857 2.857-2.857 6.572t2.857 6.572l14.286 14.286q2.857 2.857 6.572 2.857t6.572-2.857l133.143-133.143q2.857-2.857 2.857-6.572t-2.857-6.572z" horiz-adv-x="549" />
<glyph unicode="&#xf105;" d="M338.857 165.429l73.428 71.429-120.572 17.714-8.572 17.143-45.428 92v-275.143l16.857-8.857 90.857-48-17.143 101.428-3.428 18.857zM468 240.286l-103.714-101.143 24.572-142.857q1.428-9.428-1.714-14.714t-9.714-5.286q-4.857 0-11.428 3.428l-128.286 67.428-128.286-67.428q-6.572-3.428-11.428-3.428-6.572 0-9.715 5.286t-1.715 14.714l24.572 142.857-104 101.143q-9.143 9.143-6.572 17t15.428 9.857l143.429 20.857 64.286 130q5.714 11.714 14 11.714 8 0 14-11.714l64.286-130 143.429-20.857q12.857-2 15.428-9.857t-6.857-17z" horiz-adv-x="476" />
<glyph unicode="&#xf106;" d="M400.286 339.143l-182.857-365.714q-4.857-10-16.285-10-1.429 0-4.286 0.572-6.286 1.428-10.143 6.428t-3.857 11.286v164.571h-164.571q-6.285 0-11.286 3.857t-6.428 10.143 1.143 12 8.286 8.572l365.714 182.857q3.714 2 8.286 2 7.714 0 12.857-5.428 4.286-4 5.286-9.857t-1.857-11.286z" horiz-adv-x="403" />
<glyph unicode="&#xf116;" d="M411.428 310.857q0 11.428-8 19.428t-19.428 8-19.428-8-8-19.428 8-19.428 19.428-8 19.428 8 8 19.428zM475.428 393.143q0-71.143-21.572-123t-72.428-103q-23.143-22.857-55.714-50.286l-5.714-108.285q-0.572-4.572-4.572-7.428l-109.714-64q-2-1.143-4.572-1.143-3.429 0-6.572 2.572l-18.286 18.286q-3.714 4-2.286 9.143l24.286 78.857-80.285 80.286-78.857-24.286q-0.857-0.285-2.572-0.285-4 0-6.572 2.572l-18.285 18.285q-4.857 5.428-1.428 11.143l64 109.715q2.857 4 7.428 4.572l108.285 5.714q27.428 32.572 50.286 55.714 53.714 53.429 102.286 73.715t123.143 20.285q4 0 6.857-2.714t2.857-6.428z" horiz-adv-x="476" />
<glyph unicode="&#xf11c;" d="M322.857 268.286l4.572 50h-252.571l13.428-152.571h174.857l-6.286-65.143-56.286-15.143-56 15.143-3.714 40h-50l6.285-79.428 103.428-28.572h1.143v0.286l102.571 28.285 14.286 155.429h-184l-4.286 51.715h192.571zM0 402.286h402.286l-36.572-410.857-165.143-46.286-164 46.286z" horiz-adv-x="403" />
<glyph unicode="&#xf123;" d="M146.286 73.143q0 15.143-10.714 25.857t-25.857 10.715-25.857-10.715-10.715-25.857 10.715-25.857 25.857-10.714 25.857 10.714 10.714 25.857zM246.571 46.286q-3.714 66.286-50.571 113.143t-113.143 50.572q-4 0.286-6.857-2.571t-2.857-6.571v-36.571q0-3.715 2.428-6.286t6.143-2.857q44-3.143 75.428-34.572t34.571-75.428q0.286-3.715 2.857-6.143t6.286-2.428h36.571q3.714 0 6.572 2.857t2.571 6.857zM356.286 46q-1.428 44-16 85t-39.857 74.285-58.572 58.572-74.286 39.857-85 16q-4 0.286-6.572-2.572-2.857-2.857-2.857-6.572v-36.572q0-3.714 2.572-6.285t6.285-2.857q58.285-2 108-31.857t79.572-79.571 31.857-108q0.286-3.715 2.857-6.286t6.286-2.572h36.572q3.714 0 6.572 2.857 3.143 2.572 2.572 6.572zM438.857 320v-274.286q0-34-24.143-58.143t-58.143-24.143h-274.286q-34 0-58.143 24.143t-24.143 58.143v274.286q0 34 24.143 58.143t58.143 24.143h274.286q34 0 58.143-24.143t24.143-58.143z" horiz-adv-x="439" />
<glyph unicode="&#xf142;" d="M0 27.429v54.857q0 11.428 8 19.428t19.428 8h54.857q11.428 0 19.428-8t8-19.428v-54.857q0-11.428-8-19.428t-19.428-8h-54.857q-11.428 0-19.428 8t-8 19.428zM0 173.714v54.857q0 11.429 8 19.429t19.428 8h54.857q11.428 0 19.428-8t8-19.428v-54.857q0-11.428-8-19.428t-19.428-8h-54.857q-11.428 0-19.428 8t-8 19.428zM0 320v54.857q0 11.428 8 19.428t19.428 8h54.857q11.428 0 19.428-8t8-19.428v-54.857q0-11.429-8-19.429t-19.428-8h-54.857q-11.428 0-19.428 8t-8 19.429z" horiz-adv-x="110" />
<glyph unicode="&#xf148;" d="M365.714 182.857q0 10.572-8.572 15.429l-146.286 91.429q-8.857 5.714-18.572 0.571-9.428-5.143-9.428-16v-182.857q0-10.857 9.428-16 4.572-2.286 8.857-2.286 5.714 0 9.714 2.857l146.285 91.428q8.572 4.857 8.572 15.428zM512 182.857q0-27.428-0.286-42.857t-2.428-39-6.428-42.143q-4.572-20.857-19.714-35.143t-35.428-16.572q-63.428-7.143-191.714-7.143t-191.714 7.143q-20.285 2.286-35.572 16.572t-19.857 35.143q-4 18.572-6.143 42.143t-2.429 39-0.285 42.857 0.285 42.857 2.429 39 6.428 42.143q4.572 20.857 19.715 35.143t35.428 16.571q63.428 7.143 191.714 7.143t191.714-7.143q20.286-2.286 35.572-16.571t19.857-35.143q4-18.572 6.143-42.143t2.428-39 0.286-42.857z" />
<glyph unicode="&#xf179;" d="M0 181.143q0 65.143 32.285 106.857 32 41.143 81.143 41.143 20.572 0 50.572-8.571 29.714-8.572 39.428-8.572 12.857 0 40.857 9.714 29.143 9.715 49.429 9.715 34 0 60.857-18.572 14.857-10.286 29.714-28.572-22.572-19.143-32.572-33.715-18.572-26.857-18.572-59.143 0-35.428 19.714-63.715t45.143-36q-11.143-35.714-35.143-71.428-36.857-56-73.428-56-14 0-40 9.143-24.572 9.143-43.143 9.143-17.429 0-40.571-9.428-23.143-9.714-37.715-9.714-43.428 0-86 74-42 74.572-42 143.714zM195.143 323.143q0.857 42.572 22.285 73.428 21.143 30.572 71.428 42.286 0.286-0.857 0.714-3.143t0.714-3.143q0-1.143 0.143-2.857t0.143-2.857q0-17.428-8.286-38.857-8.572-21.429-26.572-39.429-15.428-15.428-30.857-20.571-10.571-3.143-29.715-4.857z" horiz-adv-x="403" />
<glyph unicode="&#xf17a;" d="M0-7.714v159.143h194.857v-186zM0 175.429v161.429l194.857 26.857v-188.286h-194.857zM216.286-37.428v188.857h259.143v-224.572zM216.286 175.429v191.143l259.143 35.714v-226.857h-259.143z" horiz-adv-x="476" />
</font>
</defs>
</svg>
